<svg width="143" height="128" viewBox="0 0 143 128" fill="none" xmlns="http://www.w3.org/2000/svg">
<g clip-path="url(#clip0_1_246)">
<path d="M116.177 41.9611C115.664 41.9611 115.163 41.8093 114.736 41.5249C114.31 41.2406 113.977 40.8363 113.781 40.3634C113.585 39.8905 113.533 39.3701 113.634 38.8681C113.734 38.3661 113.981 37.9049 114.343 37.543C114.706 37.181 115.168 36.9345 115.671 36.8347C116.175 36.7348 116.696 36.786 117.17 36.9819C117.644 37.1778 118.049 37.5096 118.334 37.9352C118.619 38.3608 118.771 38.8612 118.771 39.373C118.771 39.7129 118.704 40.0494 118.574 40.3634C118.443 40.6774 118.252 40.9627 118.012 41.2031C117.771 41.4434 117.485 41.6341 117.17 41.7641C116.855 41.8942 116.518 41.9611 116.177 41.9611Z" fill="#346991" fill-opacity="0.33"/>
<path d="M99.9512 41.9611C99.4382 41.9611 98.9367 41.8093 98.5102 41.5249C98.0836 41.2406 97.7512 40.8363 97.5548 40.3634C97.3585 39.8905 97.3072 39.3701 97.4073 38.8681C97.5074 38.3661 97.7544 37.9049 98.1172 37.543C98.4799 37.181 98.9421 36.9345 99.4452 36.8347C99.9483 36.7348 100.47 36.786 100.944 36.9819C101.418 37.1778 101.823 37.5096 102.108 37.9352C102.393 38.3608 102.545 38.8612 102.545 39.373C102.545 40.0594 102.272 40.7177 101.785 41.2031C101.299 41.6884 100.639 41.9611 99.9512 41.9611Z" fill="#346991" fill-opacity="0.33"/>
<path d="M83.725 41.9611C83.212 41.9611 82.7104 41.8093 82.2839 41.5249C81.8574 41.2406 81.5249 40.8363 81.3286 40.3634C81.1323 39.8905 81.0809 39.3701 81.181 38.8681C81.2811 38.3661 81.5281 37.9049 81.8909 37.543C82.2536 37.181 82.7158 36.9345 83.2189 36.8347C83.7221 36.7348 84.2436 36.786 84.7176 36.9819C85.1915 37.1778 85.5966 37.5096 85.8816 37.9352C86.1666 38.3608 86.3187 38.8612 86.3187 39.373C86.3187 40.0594 86.0455 40.7177 85.5591 41.2031C85.0726 41.6884 84.4129 41.9611 83.725 41.9611Z" fill="#6D4BDE"/>
<path d="M67.4987 41.9611C66.9857 41.9611 66.4843 41.8093 66.0577 41.5249C65.6312 41.2406 65.2987 40.8363 65.1024 40.3634C64.9061 39.8905 64.8547 39.3701 64.9547 38.8681C65.0548 38.3661 65.3019 37.9049 65.6646 37.543C66.0274 37.181 66.4895 36.9345 66.9927 36.8347C67.4958 36.7348 68.0173 36.786 68.4913 36.9819C68.9652 37.1778 69.3704 37.5096 69.6554 37.9352C69.9404 38.3608 70.0925 38.8612 70.0925 39.373C70.0899 40.0586 69.8157 40.7154 69.3299 41.2002C68.844 41.6849 68.1858 41.9585 67.4987 41.9611Z" fill="#346991" fill-opacity="0.33"/>
<path d="M51.2725 41.9611C50.7595 41.9611 50.258 41.8093 49.8315 41.5249C49.4049 41.2406 49.0725 40.8363 48.8762 40.3634C48.6798 39.8905 48.6285 39.3701 48.7286 38.8681C48.8286 38.3661 49.0757 37.9049 49.4384 37.543C49.8012 37.181 50.2633 36.9345 50.7665 36.8347C51.2696 36.7348 51.7912 36.786 52.2651 36.9819C52.7391 37.1778 53.1442 37.5096 53.4292 37.9352C53.7142 38.3608 53.8663 38.8612 53.8663 39.373C53.8637 40.0586 53.5895 40.7154 53.1037 41.2002C52.6178 41.6849 51.9596 41.9585 51.2725 41.9611Z" fill="#346991" fill-opacity="0.33"/>
<path d="M116.177 59.1348C115.664 59.1348 115.163 58.983 114.736 58.6986C114.31 58.4143 113.977 58.01 113.781 57.5371C113.585 57.0642 113.533 56.5439 113.634 56.0418C113.734 55.5398 113.981 55.0786 114.343 54.7167C114.706 54.3547 115.168 54.1082 115.671 54.0084C116.175 53.9085 116.696 53.9598 117.17 54.1557C117.644 54.3515 118.049 54.6833 118.334 55.1089C118.619 55.5345 118.771 56.0349 118.771 56.5467C118.773 56.887 118.706 57.2241 118.576 57.5387C118.447 57.8533 118.256 58.1391 118.014 58.3797C117.773 58.6203 117.487 58.8109 117.172 58.9405C116.856 59.0701 116.518 59.1361 116.177 59.1348Z" fill="#346991" fill-opacity="0.33"/>
<path d="M99.9512 59.1348C99.4382 59.1348 98.9367 58.983 98.5102 58.6986C98.0836 58.4143 97.7512 58.01 97.5548 57.5371C97.3585 57.0642 97.3072 56.5439 97.4073 56.0418C97.5074 55.5398 97.7544 55.0786 98.1172 54.7167C98.4799 54.3547 98.9421 54.1082 99.4452 54.0084C99.9483 53.9085 100.47 53.9598 100.944 54.1557C101.418 54.3515 101.823 54.6833 102.108 55.1089C102.393 55.5345 102.545 56.0349 102.545 56.5467C102.546 56.887 102.48 57.2241 102.35 57.5387C102.22 57.8533 102.029 58.1391 101.788 58.3797C101.547 58.6203 101.261 58.8109 100.945 58.9405C100.63 59.0701 100.292 59.1361 99.9512 59.1348Z" fill="#01BEDE"/>
<path d="M83.725 59.1348C83.212 59.1348 82.7104 58.983 82.2839 58.6986C81.8574 58.4143 81.5249 58.01 81.3286 57.5371C81.1323 57.0642 81.0809 56.5439 81.181 56.0418C81.2811 55.5398 81.5281 55.0786 81.8909 54.7167C82.2536 54.3547 82.7158 54.1082 83.2189 54.0084C83.7221 53.9085 84.2436 53.9598 84.7176 54.1557C85.1915 54.3515 85.5966 54.6833 85.8816 55.1089C86.1666 55.5345 86.3187 56.0349 86.3187 56.5467C86.32 56.887 86.2539 57.2241 86.124 57.5387C85.9941 57.8533 85.8031 58.1391 85.562 58.3797C85.3209 58.6203 85.0344 58.8109 84.7191 58.9405C84.4039 59.0701 84.066 59.1361 83.725 59.1348Z" fill="#346991" fill-opacity="0.33"/>
<path d="M67.4987 59.1348C66.9857 59.1348 66.4843 58.983 66.0577 58.6986C65.6312 58.4143 65.2987 58.01 65.1024 57.5371C64.9061 57.0642 64.8547 56.5439 64.9547 56.0418C65.0548 55.5398 65.3019 55.0786 65.6646 54.7167C66.0274 54.3547 66.4895 54.1082 66.9927 54.0084C67.4958 53.9085 68.0173 53.9598 68.4913 54.1557C68.9652 54.3515 69.3704 54.6833 69.6554 55.1089C69.9404 55.5345 70.0925 56.0349 70.0925 56.5467C70.0925 57.2331 69.8192 57.8914 69.3328 58.3768C68.8464 58.8622 68.1866 59.1348 67.4987 59.1348Z" fill="#346991" fill-opacity="0.33"/>
<path d="M51.2725 59.1348C50.7595 59.1348 50.258 58.983 49.8315 58.6986C49.4049 58.4143 49.0725 58.01 48.8762 57.5371C48.6798 57.0642 48.6285 56.5439 48.7286 56.0418C48.8286 55.5398 49.0757 55.0786 49.4384 54.7167C49.8012 54.3547 50.2633 54.1082 50.7665 54.0084C51.2696 53.9085 51.7912 53.9598 52.2651 54.1557C52.7391 54.3515 53.1442 54.6833 53.4292 55.1089C53.7142 55.5345 53.8663 56.0349 53.8663 56.5467C53.8663 57.2331 53.593 57.8914 53.1066 58.3768C52.6202 58.8622 51.9604 59.1348 51.2725 59.1348Z" fill="#346991" fill-opacity="0.33"/>
<path d="M116.177 76.3486C115.664 76.3486 115.162 76.1965 114.735 75.9117C114.309 75.6269 113.976 75.2221 113.78 74.7486C113.584 74.2751 113.533 73.7542 113.634 73.2519C113.735 72.7496 113.983 72.2884 114.347 71.9269C114.711 71.5653 115.174 71.3196 115.678 71.2209C116.181 71.1222 116.703 71.1749 117.177 71.3723C117.651 71.5697 118.055 71.903 118.339 72.3299C118.623 72.7569 118.773 73.2582 118.771 73.7705C118.771 74.1099 118.704 74.446 118.574 74.7594C118.443 75.0729 118.252 75.3575 118.011 75.5971C117.77 75.8366 117.484 76.0263 117.169 76.1552C116.855 76.2842 116.518 76.3499 116.177 76.3486Z" fill="#6D4BDE"/>
<path d="M99.9512 76.3486C99.4377 76.3486 98.9359 76.1965 98.5091 75.9117C98.0824 75.6269 97.7499 75.2221 97.5539 74.7486C97.3579 74.2751 97.3071 73.7542 97.408 73.2519C97.5089 72.7496 97.757 72.2884 98.1207 71.9269C98.4845 71.5653 98.9476 71.3196 99.4514 71.2209C99.9552 71.1222 100.477 71.1749 100.951 71.3723C101.425 71.5697 101.829 71.903 102.113 72.3299C102.397 72.7569 102.547 73.2582 102.545 73.7705C102.545 74.1099 102.478 74.446 102.347 74.7594C102.217 75.0729 102.026 75.3575 101.785 75.5971C101.544 75.8366 101.258 76.0263 100.943 76.1552C100.628 76.2842 100.291 76.3499 99.9512 76.3486Z" fill="#346991" fill-opacity="0.33"/>
<path d="M83.725 76.3486C83.2116 76.3486 82.7096 76.1965 82.2829 75.9117C81.8561 75.6269 81.5237 75.2221 81.3277 74.7486C81.1317 74.2751 81.0809 73.7542 81.1818 73.2519C81.2827 72.7496 81.5307 72.2884 81.8945 71.9269C82.2582 71.5653 82.7213 71.3196 83.2251 71.2209C83.729 71.1222 84.2508 71.1749 84.7246 71.3723C85.1983 71.5697 85.6027 71.903 85.8865 72.3299C86.1703 72.7569 86.3207 73.2582 86.3187 73.7705C86.3187 74.1099 86.2516 74.446 86.1212 74.7594C85.9907 75.0729 85.7995 75.3575 85.5585 75.5971C85.3175 75.8366 85.0315 76.0263 84.7168 76.1552C84.4022 76.2842 84.0651 76.3499 83.725 76.3486Z" fill="#01BEDE"/>
<path d="M67.4987 76.3486C66.9853 76.3486 66.4834 76.1965 66.0567 75.9117C65.6299 75.6269 65.2974 75.2221 65.1014 74.7486C64.9054 74.2751 64.8547 73.7542 64.9556 73.2519C65.0565 72.7496 65.3045 72.2884 65.6682 71.9269C66.032 71.5653 66.4951 71.3196 66.9989 71.2209C67.5027 71.1222 68.0245 71.1749 68.4983 71.3723C68.9721 71.5697 69.3765 71.903 69.6603 72.3299C69.9441 72.7569 70.0945 73.2582 70.0925 73.7705C70.0899 74.4552 69.8154 75.1109 69.3293 75.5941C68.8431 76.0773 68.1849 76.3486 67.4987 76.3486Z" fill="#346991" fill-opacity="0.33"/>
<path d="M51.2725 76.3486C50.759 76.3486 50.2572 76.1965 49.8304 75.9117C49.4037 75.6269 49.0712 75.2221 48.8752 74.7486C48.6792 74.2751 48.6284 73.7542 48.7293 73.2519C48.8302 72.7496 49.0782 72.2884 49.442 71.9269C49.8057 71.5653 50.2688 71.3196 50.7727 71.2209C51.2765 71.1222 51.7983 71.1749 52.2721 71.3723C52.7459 71.5697 53.1503 71.903 53.434 72.3299C53.7178 72.7569 53.8683 73.2582 53.8663 73.7705C53.8636 74.4552 53.5892 75.1109 53.103 75.5941C52.6169 76.0773 51.9586 76.3486 51.2725 76.3486Z" fill="#346991" fill-opacity="0.33"/>
<path d="M35.0463 41.9611C34.5333 41.9611 34.0318 41.8093 33.6053 41.5249C33.1787 41.2406 32.8463 40.8363 32.65 40.3634C32.4536 39.8905 32.4023 39.3701 32.5024 38.8681C32.6024 38.3661 32.8495 37.9049 33.2122 37.543C33.575 37.181 34.0371 36.9345 34.5403 36.8347C35.0434 36.7348 35.5649 36.786 36.0389 36.9819C36.5128 37.1778 36.918 37.5096 37.203 37.9352C37.488 38.3608 37.6401 38.8612 37.6401 39.373C37.6374 40.0586 37.3633 40.7154 36.8774 41.2002C36.3916 41.6849 35.7334 41.9585 35.0463 41.9611Z" fill="#346991" fill-opacity="0.33"/>
<path d="M18.7999 41.9611C18.2869 41.9611 17.7854 41.8093 17.3589 41.5249C16.9323 41.2406 16.5999 40.8363 16.4036 40.3634C16.2072 39.8905 16.1559 39.3701 16.256 38.8681C16.356 38.3661 16.6031 37.9049 16.9658 37.543C17.3286 37.181 17.7907 36.9345 18.2939 36.8347C18.797 36.7348 19.3186 36.786 19.7925 36.9819C20.2665 37.1778 20.6716 37.5096 20.9566 37.9352C21.2416 38.3608 21.3937 38.8612 21.3937 39.373C21.3937 40.0594 21.1204 40.7177 20.634 41.2031C20.1476 41.6884 19.4878 41.9611 18.7999 41.9611Z" fill="#346991" fill-opacity="0.33"/>
<path d="M2.59379 41.9611C2.08036 41.9631 1.57788 41.813 1.15002 41.5299C0.722151 41.2467 0.388126 40.8432 0.190266 40.3704C-0.007594 39.8977 -0.0603933 39.377 0.0385502 38.8743C0.137494 38.3716 0.383732 37.9095 0.746076 37.5466C1.10842 37.1836 1.57058 36.9361 2.074 36.8354C2.57741 36.7348 3.09946 36.7854 3.574 36.981C4.04854 37.1766 4.45423 37.5083 4.73968 37.9341C5.02514 38.36 5.17752 38.8608 5.17753 39.3731C5.17753 40.0577 4.90563 40.7145 4.42137 41.1996C3.93711 41.6846 3.27996 41.9585 2.59379 41.9611Z" fill="#346991" fill-opacity="0.33"/>
<path d="M35.0463 59.1348C34.5333 59.1348 34.0318 58.983 33.6053 58.6986C33.1787 58.4143 32.8463 58.01 32.65 57.5371C32.4536 57.0642 32.4023 56.5439 32.5024 56.0418C32.6024 55.5398 32.8495 55.0786 33.2122 54.7167C33.575 54.3547 34.0371 54.1082 34.5403 54.0084C35.0434 53.9085 35.5649 53.9598 36.0389 54.1557C36.5128 54.3515 36.918 54.6833 37.203 55.1089C37.488 55.5345 37.6401 56.0349 37.6401 56.5467C37.6401 57.2331 37.3668 57.8914 36.8804 58.3768C36.394 58.8622 35.7342 59.1348 35.0463 59.1348Z" fill="#346991" fill-opacity="0.33"/>
<path d="M18.7999 59.1348C18.2869 59.1348 17.7854 58.983 17.3589 58.6986C16.9323 58.4143 16.5999 58.01 16.4036 57.5371C16.2072 57.0642 16.1559 56.5439 16.256 56.0418C16.356 55.5398 16.6031 55.0786 16.9658 54.7167C17.3286 54.3547 17.7907 54.1082 18.2939 54.0084C18.797 53.9085 19.3186 53.9598 19.7925 54.1557C20.2665 54.3515 20.6716 54.6833 20.9566 55.1089C21.2416 55.5345 21.3937 56.0349 21.3937 56.5467C21.395 56.887 21.3288 57.2241 21.1989 57.5387C21.0691 57.8533 20.8781 58.1391 20.6369 58.3797C20.3958 58.6203 20.1094 58.8109 19.7941 58.9405C19.4788 59.0701 19.1409 59.1361 18.7999 59.1348Z" fill="#346991" fill-opacity="0.33"/>
<path d="M2.59379 59.1348C2.08036 59.1368 1.57788 58.9867 1.15002 58.7035C0.722151 58.4204 0.388126 58.0168 0.190266 57.5441C-0.007594 57.0714 -0.0603933 56.5507 0.0385502 56.048C0.137494 55.5453 0.383732 55.0832 0.746076 54.7203C1.10842 54.3573 1.57058 54.1098 2.074 54.0091C2.57741 53.9084 3.09946 53.9591 3.574 54.1547C4.04854 54.3503 4.45423 54.682 4.73968 55.1078C5.02514 55.5336 5.17752 56.0344 5.17753 56.5467C5.17885 56.8861 5.113 57.2225 4.98375 57.5364C4.8545 57.8503 4.66437 58.1357 4.42432 58.3762C4.18426 58.6166 3.89899 58.8074 3.58486 58.9376C3.27073 59.0678 2.93393 59.1348 2.59379 59.1348Z" fill="#346991" fill-opacity="0.33"/>
<path d="M35.0463 76.3486C34.5328 76.3486 34.031 76.1965 33.6042 75.9117C33.1774 75.6269 32.845 75.2221 32.649 74.7486C32.453 74.2751 32.4022 73.7542 32.5031 73.2519C32.604 72.7496 32.852 72.2884 33.2158 71.9269C33.5795 71.5653 34.0426 71.3196 34.5464 71.2209C35.0502 71.1222 35.5721 71.1749 36.0459 71.3723C36.5196 71.5697 36.924 71.903 37.2078 72.3299C37.4916 72.7569 37.642 73.2582 37.64 73.7705C37.6374 74.4552 37.3629 75.1109 36.8768 75.5941C36.3907 76.0773 35.7325 76.3486 35.0463 76.3486Z" fill="#346991" fill-opacity="0.33"/>
<path d="M18.7999 76.3486C18.2864 76.3486 17.7846 76.1965 17.3578 75.9117C16.931 75.6269 16.5986 75.2221 16.4026 74.7486C16.2066 74.2751 16.1558 73.7542 16.2567 73.2519C16.3576 72.7496 16.6056 72.2884 16.9694 71.9269C17.3331 71.5653 17.7963 71.3196 18.3001 71.2209C18.8039 71.1222 19.3257 71.1749 19.7995 71.3723C20.2732 71.5697 20.6776 71.903 20.9614 72.3299C21.2452 72.7569 21.3956 73.2582 21.3936 73.7705C21.3937 74.1099 21.3265 74.446 21.196 74.7594C21.0656 75.0729 20.8743 75.3575 20.6334 75.5971C20.3924 75.8366 20.1064 76.0263 19.7917 76.1552C19.4771 76.2842 19.14 76.3499 18.7999 76.3486Z" fill="#346991" fill-opacity="0.33"/>
<path d="M2.59376 76.3486C2.0799 76.3506 1.57703 76.2002 1.14894 75.9166C0.72086 75.633 0.386845 75.2289 0.189283 74.7556C-0.00827955 74.2823 -0.0604758 73.761 0.0392852 73.2581C0.139046 72.7551 0.386282 72.293 0.749634 71.9305C1.11299 71.5679 1.57608 71.3212 2.08016 71.2217C2.58424 71.1221 3.10657 71.1742 3.58094 71.3714C4.0553 71.5685 4.46029 71.9018 4.74453 72.3289C5.02877 72.7561 5.17948 73.2578 5.17749 73.7705C5.17749 74.4543 4.90527 75.11 4.42073 75.5935C3.93618 76.077 3.279 76.3486 2.59376 76.3486Z" fill="#346991" fill-opacity="0.33"/>
<path d="M116.177 93.5724C115.664 93.5724 115.163 93.4206 114.736 93.1363C114.31 92.8519 113.977 92.4477 113.781 91.9748C113.585 91.5018 113.533 90.9815 113.634 90.4794C113.734 89.9774 113.981 89.5162 114.343 89.1543C114.706 88.7923 115.168 88.5458 115.671 88.446C116.175 88.3461 116.696 88.3974 117.17 88.5933C117.644 88.7891 118.049 89.1208 118.334 89.5465C118.619 89.9721 118.771 90.4725 118.771 90.9843C118.771 91.3242 118.704 91.6608 118.574 91.9748C118.443 92.2888 118.252 92.5741 118.012 92.8144C117.771 93.0547 117.485 93.2453 117.17 93.3754C116.855 93.5055 116.518 93.5724 116.177 93.5724Z" fill="#346991" fill-opacity="0.33"/>
<path d="M99.9512 93.5724C99.4382 93.5724 98.9367 93.4206 98.5102 93.1363C98.0836 92.8519 97.7512 92.4477 97.5548 91.9748C97.3585 91.5018 97.3072 90.9815 97.4073 90.4794C97.5074 89.9774 97.7544 89.5162 98.1172 89.1543C98.4799 88.7923 98.9421 88.5458 99.4452 88.446C99.9483 88.3461 100.47 88.3974 100.944 88.5933C101.418 88.7891 101.823 89.1208 102.108 89.5465C102.393 89.9721 102.545 90.4725 102.545 90.9843C102.545 91.6707 102.272 92.329 101.785 92.8144C101.299 93.2997 100.639 93.5724 99.9512 93.5724Z" fill="#346991" fill-opacity="0.33"/>
<path d="M83.725 93.5724C83.212 93.5724 82.7104 93.4206 82.2839 93.1363C81.8574 92.8519 81.5249 92.4477 81.3286 91.9748C81.1323 91.5018 81.0809 90.9815 81.181 90.4794C81.2811 89.9774 81.5281 89.5162 81.8909 89.1543C82.2536 88.7923 82.7158 88.5458 83.2189 88.446C83.7221 88.3461 84.2436 88.3974 84.7176 88.5933C85.1915 88.7891 85.5966 89.1208 85.8816 89.5465C86.1666 89.9721 86.3187 90.4725 86.3187 90.9843C86.3187 91.6707 86.0455 92.329 85.5591 92.8144C85.0726 93.2997 84.4129 93.5724 83.725 93.5724Z" fill="#346991" fill-opacity="0.33"/>
<path d="M67.4987 93.5724C66.9857 93.5724 66.4843 93.4206 66.0577 93.1363C65.6312 92.8519 65.2987 92.4477 65.1024 91.9748C64.9061 91.5018 64.8547 90.9815 64.9547 90.4794C65.0548 89.9774 65.3019 89.5162 65.6646 89.1543C66.0274 88.7923 66.4895 88.5458 66.9927 88.446C67.4958 88.3461 68.0173 88.3974 68.4913 88.5933C68.9652 88.7891 69.3704 89.1208 69.6554 89.5465C69.9404 89.9721 70.0925 90.4725 70.0925 90.9843C70.0899 91.6699 69.8157 92.3267 69.3299 92.8115C68.844 93.2963 68.1858 93.5698 67.4987 93.5724Z" fill="#346991" fill-opacity="0.33"/>
<path d="M51.2725 93.5724C50.7595 93.5724 50.258 93.4206 49.8315 93.1363C49.4049 92.8519 49.0725 92.4477 48.8762 91.9748C48.6798 91.5018 48.6285 90.9815 48.7286 90.4794C48.8286 89.9774 49.0757 89.5162 49.4384 89.1543C49.8012 88.7923 50.2633 88.5458 50.7665 88.446C51.2696 88.3461 51.7912 88.3974 52.2651 88.5933C52.7391 88.7891 53.1442 89.1208 53.4292 89.5465C53.7142 89.9721 53.8663 90.4725 53.8663 90.9843C53.8637 91.6699 53.5895 92.3267 53.1037 92.8115C52.6178 93.2963 51.9596 93.5698 51.2725 93.5724Z" fill="#346991" fill-opacity="0.33"/>
<path d="M116.177 110.786C115.664 110.786 115.163 110.634 114.736 110.35C114.31 110.066 113.977 109.661 113.781 109.189C113.585 108.716 113.533 108.195 113.634 107.693C113.734 107.191 113.981 106.73 114.343 106.368C114.706 106.006 115.168 105.76 115.671 105.66C116.175 105.56 116.696 105.611 117.17 105.807C117.644 106.003 118.049 106.335 118.334 106.76C118.619 107.186 118.771 107.686 118.771 108.198C118.773 108.538 118.706 108.876 118.576 109.19C118.447 109.505 118.256 109.791 118.014 110.031C117.773 110.272 117.487 110.462 117.172 110.592C116.856 110.722 116.518 110.788 116.177 110.786Z" fill="#01BEDE"/>
<path d="M99.9512 110.786C99.4395 110.786 98.9392 110.635 98.5133 110.352C98.0875 110.069 97.7551 109.667 97.5579 109.195C97.3607 108.724 97.3076 108.205 97.4053 107.704C97.5029 107.203 97.747 106.742 98.1067 106.379C98.4664 106.016 98.9258 105.767 99.427 105.664C99.9281 105.56 100.449 105.607 100.923 105.799C101.398 105.99 101.805 106.317 102.093 106.738C102.382 107.16 102.539 107.657 102.545 108.168C102.55 108.511 102.487 108.851 102.359 109.169C102.231 109.487 102.041 109.777 101.799 110.021C101.558 110.264 101.27 110.458 100.952 110.589C100.635 110.721 100.295 110.788 99.9512 110.786Z" fill="#346991" fill-opacity="0.33"/>
<path d="M83.725 110.786C83.212 110.786 82.7104 110.634 82.2839 110.35C81.8574 110.066 81.5249 109.661 81.3286 109.189C81.1323 108.716 81.0809 108.195 81.181 107.693C81.2811 107.191 81.5281 106.73 81.8909 106.368C82.2536 106.006 82.7158 105.76 83.2189 105.66C83.7221 105.56 84.2436 105.611 84.7176 105.807C85.1915 106.003 85.5966 106.335 85.8816 106.76C86.1666 107.186 86.3187 107.686 86.3187 108.198C86.32 108.538 86.2539 108.876 86.124 109.19C85.9941 109.505 85.8031 109.791 85.562 110.031C85.3209 110.272 85.0344 110.462 84.7191 110.592C84.4039 110.722 84.066 110.788 83.725 110.786Z" fill="#346991" fill-opacity="0.33"/>
<path d="M67.4988 110.786C66.9862 110.79 66.484 110.642 66.0555 110.362C65.627 110.081 65.2915 109.68 65.0912 109.209C64.891 108.739 64.835 108.219 64.9304 107.717C65.0258 107.214 65.2682 106.751 65.6271 106.386C65.9861 106.021 66.4453 105.77 66.947 105.665C67.4486 105.56 67.9702 105.606 68.4458 105.797C68.9214 105.987 69.3298 106.314 69.6193 106.736C69.9088 107.158 70.0665 107.657 70.0725 108.168C70.0764 108.509 70.0129 108.847 69.8856 109.163C69.7583 109.479 69.5697 109.767 69.3306 110.01C69.0915 110.254 68.8066 110.447 68.4922 110.581C68.1779 110.714 67.8403 110.784 67.4988 110.786Z" fill="#346991" fill-opacity="0.33"/>
<path d="M51.2725 110.786C50.7595 110.786 50.258 110.634 49.8315 110.35C49.4049 110.066 49.0725 109.661 48.8762 109.189C48.6798 108.716 48.6285 108.195 48.7286 107.693C48.8286 107.191 49.0757 106.73 49.4384 106.368C49.8012 106.006 50.2633 105.76 50.7665 105.66C51.2696 105.56 51.7912 105.611 52.2651 105.807C52.7391 106.003 53.1442 106.335 53.4292 106.76C53.7142 107.186 53.8663 107.686 53.8663 108.198C53.8663 108.885 53.593 109.543 53.1066 110.028C52.6202 110.514 51.9604 110.786 51.2725 110.786Z" fill="#346991" fill-opacity="0.33"/>
<path d="M116.177 128C115.664 128 115.163 127.848 114.736 127.564C114.31 127.279 113.977 126.875 113.781 126.402C113.585 125.929 113.533 125.409 113.634 124.907C113.734 124.405 113.981 123.944 114.343 123.582C114.706 123.22 115.168 122.973 115.671 122.874C116.175 122.774 116.696 122.825 117.17 123.021C117.644 123.217 118.049 123.548 118.334 123.974C118.619 124.4 118.771 124.9 118.771 125.412C118.773 125.752 118.706 126.089 118.576 126.404C118.447 126.719 118.256 127.004 118.014 127.245C117.773 127.486 117.487 127.676 117.172 127.806C116.856 127.935 116.518 128.001 116.177 128Z" fill="#346991" fill-opacity="0.33"/>
<path d="M99.9512 128C99.4382 128 98.9367 127.848 98.5102 127.564C98.0836 127.279 97.7512 126.875 97.5548 126.402C97.3585 125.929 97.3072 125.409 97.4073 124.907C97.5074 124.405 97.7544 123.944 98.1172 123.582C98.4799 123.22 98.9421 122.973 99.4452 122.874C99.9483 122.774 100.47 122.825 100.944 123.021C101.418 123.217 101.823 123.548 102.108 123.974C102.393 124.4 102.545 124.9 102.545 125.412C102.546 125.752 102.48 126.089 102.35 126.404C102.22 126.719 102.029 127.004 101.788 127.245C101.547 127.486 101.261 127.676 100.945 127.806C100.63 127.935 100.292 128.001 99.9512 128Z" fill="#346991" fill-opacity="0.33"/>
<path d="M83.725 128C83.212 128 82.7104 127.848 82.2839 127.564C81.8574 127.279 81.5249 126.875 81.3286 126.402C81.1323 125.929 81.0809 125.409 81.181 124.907C81.2811 124.405 81.5281 123.944 81.8909 123.582C82.2536 123.22 82.7158 122.973 83.2189 122.874C83.7221 122.774 84.2436 122.825 84.7176 123.021C85.1915 123.217 85.5966 123.548 85.8816 123.974C86.1666 124.4 86.3187 124.9 86.3187 125.412C86.32 125.752 86.2539 126.089 86.124 126.404C85.9941 126.719 85.8031 127.004 85.562 127.245C85.3209 127.486 85.0344 127.676 84.7191 127.806C84.4039 127.935 84.066 128.001 83.725 128Z" fill="#346991" fill-opacity="0.33"/>
<path d="M67.4987 128C66.9857 128 66.4843 127.848 66.0577 127.564C65.6312 127.279 65.2987 126.875 65.1024 126.402C64.9061 125.929 64.8547 125.409 64.9547 124.907C65.0548 124.405 65.3019 123.944 65.6646 123.582C66.0274 123.22 66.4895 122.973 66.9927 122.874C67.4958 122.774 68.0173 122.825 68.4913 123.021C68.9652 123.217 69.3704 123.548 69.6554 123.974C69.9404 124.4 70.0925 124.9 70.0925 125.412C70.0925 126.098 69.8192 126.757 69.3328 127.242C68.8464 127.727 68.1866 128 67.4987 128Z" fill="#6D4BDE"/>
<path d="M51.2725 128C50.7595 128 50.258 127.848 49.8315 127.564C49.4049 127.279 49.0725 126.875 48.8762 126.402C48.6798 125.929 48.6285 125.409 48.7286 124.907C48.8286 124.405 49.0757 123.944 49.4384 123.582C49.8012 123.22 50.2633 122.973 50.7665 122.874C51.2696 122.774 51.7912 122.825 52.2651 123.021C52.7391 123.217 53.1442 123.548 53.4292 123.974C53.7142 124.4 53.8663 124.9 53.8663 125.412C53.8663 126.098 53.593 126.757 53.1066 127.242C52.6202 127.727 51.9604 128 51.2725 128Z" fill="#346991" fill-opacity="0.33"/>
<path d="M35.0463 93.5724C34.5333 93.5724 34.0318 93.4206 33.6053 93.1363C33.1787 92.8519 32.8463 92.4477 32.65 91.9748C32.4536 91.5018 32.4023 90.9815 32.5024 90.4794C32.6024 89.9774 32.8495 89.5162 33.2122 89.1543C33.575 88.7923 34.0371 88.5458 34.5403 88.446C35.0434 88.3461 35.5649 88.3974 36.0389 88.5933C36.5128 88.7891 36.918 89.1208 37.203 89.5465C37.488 89.9721 37.6401 90.4725 37.6401 90.9843C37.6374 91.6699 37.3633 92.3267 36.8774 92.8115C36.3916 93.2963 35.7334 93.5698 35.0463 93.5724Z" fill="#346991" fill-opacity="0.33"/>
<path d="M18.7999 93.5724C18.2869 93.5724 17.7854 93.4206 17.3589 93.1363C16.9323 92.8519 16.5999 92.4477 16.4036 91.9748C16.2072 91.5018 16.1559 90.9815 16.256 90.4794C16.356 89.9774 16.6031 89.5162 16.9658 89.1543C17.3286 88.7923 17.7907 88.5458 18.2939 88.446C18.797 88.3461 19.3186 88.3974 19.7925 88.5933C20.2665 88.7891 20.6716 89.1208 20.9566 89.5465C21.2416 89.9721 21.3937 90.4725 21.3937 90.9843C21.3937 91.6707 21.1204 92.329 20.634 92.8144C20.1476 93.2997 19.4878 93.5724 18.7999 93.5724Z" fill="#346991" fill-opacity="0.33"/>
<path d="M2.59379 93.5724C2.08036 93.5744 1.57788 93.4243 1.15002 93.1411C0.722151 92.8579 0.388126 92.4544 0.190266 91.9817C-0.007594 91.509 -0.0603933 90.9883 0.0385502 90.4856C0.137494 89.9829 0.383732 89.5208 0.746076 89.1578C1.10842 88.7949 1.57058 88.5474 2.074 88.4467C2.57741 88.346 3.09946 88.3967 3.574 88.5923C4.04854 88.7879 4.45423 89.1196 4.73968 89.5454C5.02514 89.9712 5.17752 90.472 5.17753 90.9843C5.17753 91.669 4.90563 92.3257 4.42137 92.8108C3.93711 93.2959 3.27996 93.5698 2.59379 93.5724Z" fill="#346991" fill-opacity="0.33"/>
<path d="M35.0463 110.786C34.5333 110.786 34.0318 110.634 33.6053 110.35C33.1787 110.066 32.8463 109.661 32.65 109.189C32.4536 108.716 32.4023 108.195 32.5024 107.693C32.6024 107.191 32.8495 106.73 33.2122 106.368C33.575 106.006 34.0371 105.76 34.5403 105.66C35.0434 105.56 35.5649 105.611 36.0389 105.807C36.5128 106.003 36.918 106.335 37.203 106.76C37.488 107.186 37.6401 107.686 37.6401 108.198C37.6401 108.885 37.3668 109.543 36.8804 110.028C36.394 110.514 35.7342 110.786 35.0463 110.786Z" fill="#01BEDE"/>
<path d="M18.7999 110.786C18.2891 110.782 17.7908 110.628 17.3676 110.342C16.9444 110.057 16.6151 109.653 16.421 109.182C16.2269 108.71 16.1766 108.192 16.2765 107.692C16.3765 107.192 16.6221 106.733 16.9826 106.372C17.3432 106.011 17.8025 105.764 18.3031 105.662C18.8037 105.56 19.3233 105.609 19.7965 105.8C20.2698 105.992 20.6758 106.319 20.9635 106.741C21.2512 107.162 21.4079 107.658 21.4138 108.168C21.4192 108.512 21.3554 108.855 21.2261 109.174C21.0967 109.493 20.9046 109.784 20.6609 110.028C20.4172 110.272 20.127 110.465 19.8074 110.595C19.4877 110.725 19.1452 110.79 18.7999 110.786Z" fill="#346991" fill-opacity="0.33"/>
<path d="M2.59379 110.786C2.08036 110.788 1.57788 110.638 1.15002 110.355C0.722151 110.072 0.388126 109.668 0.190266 109.195C-0.007594 108.723 -0.0603933 108.202 0.0385502 107.699C0.137494 107.197 0.383732 106.735 0.746076 106.372C1.10842 106.009 1.57058 105.761 2.074 105.661C2.57741 105.56 3.09946 105.61 3.574 105.806C4.04854 106.002 4.45423 106.333 4.73968 106.759C5.02514 107.185 5.17752 107.686 5.17753 108.198C5.17885 108.538 5.113 108.874 4.98375 109.188C4.8545 109.502 4.66437 109.787 4.42432 110.028C4.18426 110.268 3.89899 110.459 3.58486 110.589C3.27073 110.719 2.93393 110.786 2.59379 110.786Z" fill="#346991" fill-opacity="0.33"/>
<path d="M35.0463 128C34.5333 128 34.0318 127.848 33.6053 127.564C33.1787 127.279 32.8463 126.875 32.65 126.402C32.4536 125.929 32.4023 125.409 32.5024 124.907C32.6024 124.405 32.8495 123.944 33.2122 123.582C33.575 123.22 34.0371 122.973 34.5403 122.874C35.0434 122.774 35.5649 122.825 36.0389 123.021C36.5128 123.217 36.918 123.548 37.203 123.974C37.488 124.4 37.6401 124.9 37.6401 125.412C37.6401 126.098 37.3668 126.757 36.8804 127.242C36.394 127.727 35.7342 128 35.0463 128Z" fill="#346991" fill-opacity="0.33"/>
<path d="M18.7999 128C18.2869 128 17.7854 127.848 17.3589 127.564C16.9323 127.279 16.5999 126.875 16.4036 126.402C16.2072 125.929 16.1559 125.409 16.256 124.907C16.356 124.405 16.6031 123.944 16.9658 123.582C17.3286 123.22 17.7907 122.973 18.2939 122.874C18.797 122.774 19.3186 122.825 19.7925 123.021C20.2665 123.217 20.6716 123.548 20.9566 123.974C21.2416 124.4 21.3937 124.9 21.3937 125.412C21.395 125.752 21.3288 126.089 21.1989 126.404C21.0691 126.719 20.8781 127.004 20.6369 127.245C20.3958 127.486 20.1094 127.676 19.7941 127.806C19.4788 127.935 19.1409 128.001 18.7999 128Z" fill="#346991" fill-opacity="0.33"/>
<path d="M2.59379 128C2.08036 128.002 1.57788 127.852 1.15002 127.569C0.722151 127.286 0.388126 126.882 0.190266 126.409C-0.007594 125.937 -0.0603933 125.416 0.0385502 124.913C0.137494 124.41 0.383732 123.948 0.746076 123.585C1.10842 123.222 1.57058 122.975 2.074 122.874C2.57741 122.774 3.09946 122.824 3.574 123.02C4.04854 123.215 4.45423 123.547 4.73968 123.973C5.02514 124.399 5.17752 124.9 5.17753 125.412C5.17885 125.751 5.113 126.088 4.98375 126.402C4.8545 126.716 4.66437 127.001 4.42432 127.241C4.18426 127.482 3.89899 127.673 3.58486 127.803C3.27073 127.933 2.93393 128 2.59379 128Z" fill="#346991" fill-opacity="0.33"/>
</g>
<defs>
<clipPath id="clip0_1_246">
<rect width="143" height="128" fill="white"/>
</clipPath>
</defs>
</svg>
