<svg width="255" height="228" viewBox="0 0 255 228" fill="none" xmlns="http://www.w3.org/2000/svg">
<g clip-path="url(#clip0_1_561)">
<path d="M207.17 74.7432C206.255 74.7432 205.361 74.4729 204.6 73.9663C203.839 73.4597 203.246 72.7398 202.896 71.8974C202.546 71.055 202.455 70.1281 202.633 69.2338C202.812 68.3396 203.252 67.5182 203.899 66.8734C204.546 66.2287 205.37 65.7897 206.267 65.6118C207.165 65.4339 208.095 65.5252 208.94 65.8741C209.785 66.223 210.507 66.8139 211.015 67.572C211.524 68.3301 211.795 69.2215 211.795 70.1332C211.795 70.7386 211.675 71.3381 211.443 71.8974C211.21 72.4567 210.87 72.9649 210.44 73.393C210.011 73.8211 209.501 74.1607 208.94 74.3923C208.379 74.624 207.777 74.7432 207.17 74.7432Z" fill="#E7E7E7"/>
<path d="M178.235 74.7432C177.32 74.7432 176.426 74.4729 175.665 73.9663C174.904 73.4597 174.312 72.7398 173.961 71.8974C173.611 71.055 173.52 70.1281 173.698 69.2338C173.877 68.3396 174.317 67.5182 174.964 66.8734C175.611 66.2287 176.435 65.7897 177.332 65.6118C178.23 65.4339 179.16 65.5252 180.005 65.8741C180.85 66.223 181.572 66.8139 182.08 67.572C182.589 68.3301 182.86 69.2215 182.86 70.1332C182.86 71.3559 182.373 72.5284 181.505 73.393C180.638 74.2575 179.461 74.7432 178.235 74.7432Z" fill="#E7E7E7"/>
<path d="M149.3 74.7432C148.385 74.7432 147.491 74.4729 146.73 73.9663C145.969 73.4597 145.377 72.7398 145.027 71.8974C144.677 71.055 144.585 70.1281 144.763 69.2338C144.942 68.3396 145.382 67.5182 146.029 66.8734C146.676 66.2287 147.5 65.7897 148.397 65.6118C149.295 65.4339 150.225 65.5252 151.07 65.8741C151.915 66.223 152.637 66.8139 153.146 67.572C153.654 68.3301 153.925 69.2215 153.925 70.1332C153.925 71.3559 153.438 72.5284 152.57 73.393C151.703 74.2575 150.527 74.7432 149.3 74.7432Z" fill="#6D4BDE"/>
<path d="M120.365 74.7432C119.45 74.7432 118.556 74.4729 117.795 73.9663C117.035 73.4597 116.442 72.7398 116.092 71.8974C115.742 71.055 115.65 70.1281 115.828 69.2338C116.007 68.3396 116.447 67.5182 117.094 66.8734C117.741 66.2287 118.565 65.7897 119.462 65.6118C120.36 65.4339 121.29 65.5252 122.135 65.8741C122.98 66.223 123.702 66.8139 124.211 67.572C124.719 68.3301 124.99 69.2215 124.99 70.1332C124.985 71.3544 124.497 72.5243 123.63 73.3878C122.764 74.2513 121.59 74.7385 120.365 74.7432Z" fill="#E7E7E7"/>
<path d="M91.43 74.7432C90.5152 74.7432 89.621 74.4729 88.8603 73.9663C88.0997 73.4597 87.5068 72.7398 87.1568 71.8974C86.8067 71.055 86.7151 70.1281 86.8936 69.2338C87.072 68.3396 87.5126 67.5182 88.1594 66.8734C88.8063 66.2287 89.6304 65.7897 90.5276 65.6118C91.4249 65.4339 92.3548 65.5252 93.2 65.8741C94.0452 66.223 94.7675 66.8139 95.2758 67.572C95.784 68.3301 96.0553 69.2215 96.0553 70.1332C96.0506 71.3544 95.5617 72.5243 94.6953 73.3878C93.829 74.2513 92.6552 74.7385 91.43 74.7432Z" fill="#E7E7E7"/>
<path d="M207.17 105.334C206.255 105.334 205.361 105.063 204.6 104.557C203.839 104.05 203.246 103.33 202.896 102.488C202.546 101.646 202.455 100.719 202.633 99.8244C202.812 98.9302 203.252 98.1087 203.899 97.464C204.546 96.8193 205.37 96.3802 206.267 96.2024C207.165 96.0245 208.095 96.1158 208.94 96.4647C209.785 96.8136 210.507 97.4045 211.015 98.1626C211.524 98.9207 211.795 99.812 211.795 100.724C211.797 101.33 211.679 101.93 211.448 102.491C211.216 103.051 210.875 103.56 210.445 103.989C210.015 104.417 209.505 104.757 208.942 104.988C208.38 105.219 207.778 105.336 207.17 105.334Z" fill="#E7E7E7"/>
<path d="M178.235 105.334C177.32 105.334 176.426 105.063 175.665 104.557C174.904 104.05 174.312 103.33 173.961 102.488C173.611 101.646 173.52 100.719 173.698 99.8244C173.877 98.9302 174.317 98.1087 174.964 97.464C175.611 96.8193 176.435 96.3802 177.332 96.2024C178.23 96.0245 179.16 96.1158 180.005 96.4647C180.85 96.8136 181.572 97.4045 182.08 98.1626C182.589 98.9207 182.86 99.812 182.86 100.724C182.862 101.33 182.744 101.93 182.513 102.491C182.281 103.051 181.941 103.56 181.511 103.989C181.081 104.417 180.57 104.757 180.007 104.988C179.445 105.219 178.843 105.336 178.235 105.334Z" fill="#01BEDE"/>
<path d="M149.3 105.334C148.385 105.334 147.491 105.063 146.73 104.557C145.969 104.05 145.377 103.33 145.027 102.488C144.677 101.646 144.585 100.719 144.763 99.8244C144.942 98.9302 145.382 98.1087 146.029 97.464C146.676 96.8193 147.5 96.3802 148.397 96.2024C149.295 96.0245 150.225 96.1158 151.07 96.4647C151.915 96.8136 152.637 97.4045 153.146 98.1626C153.654 98.9207 153.925 99.812 153.925 100.724C153.927 101.33 153.809 101.93 153.578 102.491C153.346 103.051 153.006 103.56 152.576 103.989C152.146 104.417 151.635 104.757 151.073 104.988C150.51 105.219 149.908 105.336 149.3 105.334Z" fill="#E7E7E7"/>
<path d="M120.365 105.334C119.45 105.334 118.556 105.063 117.795 104.557C117.035 104.05 116.442 103.33 116.092 102.488C115.742 101.646 115.65 100.719 115.828 99.8244C116.007 98.9302 116.447 98.1087 117.094 97.464C117.741 96.8193 118.565 96.3802 119.462 96.2024C120.36 96.0245 121.29 96.1158 122.135 96.4647C122.98 96.8136 123.702 97.4045 124.211 98.1626C124.719 98.9207 124.99 99.812 124.99 100.724C124.99 101.946 124.503 103.119 123.635 103.984C122.768 104.848 121.592 105.334 120.365 105.334Z" fill="#E7E7E7"/>
<path d="M91.43 105.334C90.5152 105.334 89.621 105.063 88.8603 104.557C88.0997 104.05 87.5068 103.33 87.1568 102.488C86.8067 101.646 86.7151 100.719 86.8936 99.8244C87.072 98.9302 87.5126 98.1087 88.1594 97.464C88.8063 96.8193 89.6304 96.3802 90.5276 96.2024C91.4249 96.0245 92.3548 96.1158 93.2 96.4647C94.0452 96.8136 94.7675 97.4045 95.2758 98.1626C95.784 98.9207 96.0553 99.812 96.0553 100.724C96.0553 101.946 95.568 103.119 94.7005 103.984C93.8331 104.848 92.6567 105.334 91.43 105.334Z" fill="#E7E7E7"/>
<path d="M207.17 135.996C206.254 135.996 205.359 135.725 204.598 135.218C203.837 134.71 203.244 133.989 202.895 133.146C202.545 132.303 202.455 131.375 202.635 130.48C202.814 129.585 203.257 128.764 203.905 128.12C204.554 127.476 205.38 127.038 206.278 126.862C207.177 126.686 208.107 126.78 208.952 127.132C209.797 127.484 210.518 128.077 211.024 128.838C211.53 129.598 211.798 130.491 211.795 131.404C211.795 132.008 211.675 132.607 211.442 133.165C211.21 133.724 210.869 134.231 210.439 134.657C210.009 135.084 209.499 135.422 208.938 135.652C208.377 135.881 207.776 135.998 207.17 135.996Z" fill="#6D4BDE"/>
<path d="M178.235 135.996C177.319 135.996 176.424 135.725 175.663 135.218C174.902 134.71 174.309 133.989 173.96 133.146C173.61 132.303 173.52 131.375 173.7 130.48C173.88 129.585 174.322 128.764 174.971 128.12C175.619 127.476 176.445 127.038 177.343 126.862C178.242 126.686 179.172 126.78 180.017 127.132C180.862 127.484 181.583 128.077 182.089 128.838C182.595 129.598 182.863 130.491 182.86 131.404C182.86 132.008 182.74 132.607 182.507 133.165C182.275 133.724 181.934 134.231 181.504 134.657C181.074 135.084 180.564 135.422 180.003 135.652C179.442 135.881 178.841 135.998 178.235 135.996Z" fill="#E7E7E7"/>
<path d="M149.3 135.996C148.384 135.996 147.489 135.725 146.728 135.218C145.967 134.71 145.374 133.989 145.025 133.146C144.675 132.303 144.585 131.375 144.765 130.48C144.945 129.585 145.387 128.764 146.036 128.12C146.684 127.476 147.51 127.038 148.409 126.862C149.307 126.686 150.237 126.78 151.082 127.132C151.927 127.484 152.648 128.077 153.154 128.838C153.66 129.598 153.929 130.491 153.925 131.404C153.925 132.008 153.805 132.607 153.573 133.165C153.34 133.724 152.999 134.231 152.569 134.657C152.14 135.084 151.63 135.422 151.069 135.652C150.507 135.881 149.906 135.998 149.3 135.996Z" fill="#01BEDE"/>
<path d="M120.365 135.996C119.449 135.996 118.554 135.725 117.793 135.218C117.032 134.71 116.44 133.989 116.09 133.146C115.74 132.303 115.65 131.375 115.83 130.48C116.01 129.585 116.452 128.764 117.101 128.12C117.749 127.476 118.575 127.038 119.474 126.862C120.372 126.686 121.303 126.78 122.147 127.132C122.992 127.484 123.713 128.077 124.219 128.838C124.726 129.598 124.994 130.491 124.99 131.404C124.986 132.623 124.496 133.791 123.629 134.652C122.762 135.513 121.589 135.996 120.365 135.996Z" fill="#E7E7E7"/>
<path d="M91.4299 135.996C90.5144 135.996 89.6194 135.725 88.8584 135.218C88.0974 134.71 87.5046 133.989 87.155 133.146C86.8055 132.303 86.715 131.375 86.8949 130.48C87.0748 129.585 87.5171 128.764 88.1658 128.12C88.8144 127.476 89.6402 127.038 90.5386 126.862C91.437 126.686 92.3676 126.78 93.2124 127.132C94.0573 127.484 94.7784 128.077 95.2845 128.838C95.7906 129.598 96.0588 130.491 96.0552 131.404C96.0505 132.623 95.5611 133.791 94.6942 134.652C93.8273 135.513 92.6535 135.996 91.4299 135.996Z" fill="#E7E7E7"/>
<path d="M62.4951 74.7432C61.5803 74.7432 60.686 74.4729 59.9254 73.9663C59.1648 73.4597 58.572 72.7398 58.2219 71.8974C57.8718 71.055 57.7802 70.1281 57.9587 69.2338C58.1372 68.3396 58.5777 67.5182 59.2245 66.8734C59.8714 66.2287 60.6956 65.7897 61.5928 65.6118C62.49 65.4339 63.4199 65.5252 64.2651 65.8741C65.1103 66.223 65.8327 66.8139 66.3409 67.572C66.8491 68.3301 67.1204 69.2215 67.1204 70.1332C67.1156 71.3544 66.6268 72.5243 65.7604 73.3878C64.894 74.2513 63.7204 74.7385 62.4951 74.7432Z" fill="#E7E7E7"/>
<path d="M33.5243 74.7432C32.6096 74.7432 31.7153 74.4729 30.9547 73.9663C30.194 73.4597 29.6012 72.7398 29.2511 71.8974C28.9011 71.055 28.8095 70.1281 28.9879 69.2338C29.1664 68.3396 29.6069 67.5182 30.2538 66.8734C30.9006 66.2287 31.7248 65.7897 32.622 65.6118C33.5192 65.4339 34.4492 65.5252 35.2944 65.8741C36.1395 66.223 36.8619 66.8139 37.3701 67.572C37.8784 68.3301 38.1496 69.2215 38.1496 70.1332C38.1496 71.3559 37.6623 72.5284 36.7949 73.393C35.9275 74.2575 34.751 74.7432 33.5243 74.7432Z" fill="#E7E7E7"/>
<path d="M4.62528 74.7432C3.70973 74.7468 2.81371 74.4794 2.05073 73.975C1.28775 73.4706 0.692111 72.7519 0.339284 71.9098C-0.0135429 71.0678 -0.107696 70.1403 0.0687422 69.2448C0.24518 68.3494 0.684277 67.5263 1.33041 66.8798C1.97655 66.2333 2.80068 65.7924 3.69838 65.6131C4.59608 65.4337 5.52702 65.524 6.37322 65.8724C7.21942 66.2208 7.94285 66.8117 8.45188 67.5702C8.96091 68.3287 9.23264 69.2207 9.23265 70.1332C9.23266 71.3528 8.7478 72.5227 7.88426 73.3867C7.02073 74.2507 5.84887 74.7385 4.62528 74.7432Z" fill="#E7E7E7"/>
<path d="M62.4951 105.334C61.5803 105.334 60.686 105.063 59.9254 104.557C59.1648 104.05 58.572 103.33 58.2219 102.488C57.8718 101.646 57.7802 100.719 57.9587 99.8244C58.1372 98.9302 58.5777 98.1087 59.2245 97.464C59.8714 96.8193 60.6956 96.3802 61.5928 96.2024C62.49 96.0245 63.4199 96.1158 64.2651 96.4647C65.1103 96.8136 65.8327 97.4045 66.3409 98.1626C66.8491 98.9207 67.1204 99.812 67.1204 100.724C67.1204 101.946 66.6331 103.119 65.7657 103.984C64.8983 104.848 63.7218 105.334 62.4951 105.334Z" fill="#E7E7E7"/>
<path d="M33.5243 105.334C32.6096 105.334 31.7153 105.063 30.9547 104.557C30.194 104.05 29.6012 103.33 29.2511 102.488C28.9011 101.646 28.8095 100.719 28.9879 99.8244C29.1664 98.9302 29.6069 98.1087 30.2538 97.464C30.9006 96.8193 31.7248 96.3802 32.622 96.2024C33.5192 96.0245 34.4492 96.1158 35.2944 96.4647C36.1395 96.8136 36.8619 97.4045 37.3701 98.1626C37.8784 98.9207 38.1496 99.812 38.1496 100.724C38.152 101.33 38.034 101.93 37.8024 102.491C37.5708 103.051 37.2301 103.56 36.8002 103.989C36.3702 104.417 35.8594 104.757 35.2972 104.988C34.7349 105.219 34.1324 105.336 33.5243 105.334Z" fill="#E7E7E7"/>
<path d="M4.62528 105.334C3.70973 105.337 2.81371 105.07 2.05073 104.566C1.28775 104.061 0.692111 103.342 0.339284 102.5C-0.0135429 101.658 -0.107696 100.731 0.0687422 99.8354C0.24518 98.94 0.684277 98.1169 1.33041 97.4704C1.97655 96.8239 2.80068 96.383 3.69838 96.2037C4.59608 96.0243 5.52702 96.1146 6.37322 96.463C7.21942 96.8114 7.94285 97.4022 8.45188 98.1607C8.96091 98.9192 9.23264 99.8113 9.23265 100.724C9.23501 101.328 9.11758 101.927 8.8871 102.487C8.65662 103.046 8.31758 103.554 7.88951 103.983C7.46145 104.411 6.95275 104.751 6.39259 104.983C5.83243 105.214 5.23184 105.334 4.62528 105.334Z" fill="#E7E7E7"/>
<path d="M62.4951 135.996C61.5795 135.996 60.6845 135.725 59.9235 135.218C59.1625 134.71 58.5697 133.989 58.2202 133.146C57.8706 132.303 57.7801 131.375 57.96 130.48C58.14 129.585 58.5822 128.764 59.2309 128.12C59.8795 127.476 60.7053 127.038 61.6037 126.862C62.5021 126.686 63.4327 126.78 64.2775 127.132C65.1224 127.484 65.8435 128.077 66.3496 128.838C66.8556 129.598 67.1239 130.491 67.1203 131.404C67.1156 132.623 66.6262 133.791 65.7593 134.652C64.8924 135.513 63.7187 135.996 62.4951 135.996Z" fill="#E7E7E7"/>
<path d="M33.5243 135.996C32.6087 135.996 31.7138 135.725 30.9528 135.218C30.1918 134.71 29.599 133.989 29.2494 133.146C28.8999 132.303 28.8093 131.375 28.9893 130.48C29.1692 129.585 29.6115 128.764 30.2601 128.12C30.9088 127.476 31.7346 127.038 32.633 126.862C33.5314 126.686 34.4619 126.78 35.3068 127.132C36.1516 127.484 36.8727 128.077 37.3788 128.838C37.8849 129.598 38.1531 130.491 38.1496 131.404C38.1496 132.008 38.0298 132.607 37.7972 133.165C37.5645 133.724 37.2235 134.231 36.7938 134.657C36.3641 135.084 35.854 135.422 35.293 135.652C34.7319 135.881 34.1309 135.998 33.5243 135.996Z" fill="#E7E7E7"/>
<path d="M4.62527 135.996C3.70896 135.999 2.81222 135.732 2.04886 135.226C1.28549 134.721 0.689873 134.001 0.337577 133.158C-0.0147196 132.315 -0.107797 131.387 0.0700987 130.491C0.247994 129.595 0.68887 128.772 1.3368 128.126C1.98474 127.48 2.81054 127.041 3.70942 126.864C4.60831 126.686 5.53974 126.779 6.38563 127.13C7.23152 127.481 7.9537 128.075 8.46057 128.836C8.96743 129.597 9.23618 130.49 9.23264 131.404C9.23264 132.622 8.7472 133.79 7.88316 134.651C7.01911 135.512 5.84722 135.996 4.62527 135.996Z" fill="#E7E7E7"/>
<path d="M207.17 166.676C206.255 166.676 205.361 166.406 204.6 165.899C203.839 165.392 203.246 164.672 202.896 163.83C202.546 162.988 202.455 162.061 202.633 161.166C202.812 160.272 203.252 159.451 203.899 158.806C204.546 158.161 205.37 157.722 206.267 157.544C207.165 157.367 208.095 157.458 208.94 157.807C209.785 158.156 210.507 158.747 211.015 159.505C211.524 160.263 211.795 161.154 211.795 162.066C211.795 162.671 211.675 163.271 211.443 163.83C211.21 164.389 210.87 164.898 210.44 165.326C210.011 165.754 209.501 166.093 208.94 166.325C208.379 166.557 207.777 166.676 207.17 166.676Z" fill="#E7E7E7"/>
<path d="M178.235 166.676C177.32 166.676 176.426 166.406 175.665 165.899C174.904 165.392 174.312 164.672 173.961 163.83C173.611 162.988 173.52 162.061 173.698 161.166C173.877 160.272 174.317 159.451 174.964 158.806C175.611 158.161 176.435 157.722 177.332 157.544C178.23 157.367 179.16 157.458 180.005 157.807C180.85 158.156 181.572 158.747 182.08 159.505C182.589 160.263 182.86 161.154 182.86 162.066C182.86 163.288 182.373 164.461 181.505 165.326C180.638 166.19 179.461 166.676 178.235 166.676Z" fill="#E7E7E7"/>
<path d="M149.3 166.676C148.385 166.676 147.491 166.406 146.73 165.899C145.969 165.392 145.377 164.672 145.027 163.83C144.677 162.988 144.585 162.061 144.763 161.166C144.942 160.272 145.382 159.451 146.029 158.806C146.676 158.161 147.5 157.722 148.397 157.544C149.295 157.367 150.225 157.458 151.07 157.807C151.915 158.156 152.637 158.747 153.146 159.505C153.654 160.263 153.925 161.154 153.925 162.066C153.925 163.288 153.438 164.461 152.57 165.326C151.703 166.19 150.527 166.676 149.3 166.676Z" fill="#E7E7E7"/>
<path d="M120.365 166.676C119.45 166.676 118.556 166.406 117.795 165.899C117.035 165.392 116.442 164.672 116.092 163.83C115.742 162.988 115.65 162.061 115.828 161.166C116.007 160.272 116.447 159.451 117.094 158.806C117.741 158.161 118.565 157.722 119.462 157.544C120.36 157.367 121.29 157.458 122.135 157.807C122.98 158.156 123.702 158.747 124.211 159.505C124.719 160.263 124.99 161.154 124.99 162.066C124.985 163.287 124.497 164.457 123.63 165.32C122.764 166.184 121.59 166.671 120.365 166.676Z" fill="#E7E7E7"/>
<path d="M91.43 166.676C90.5152 166.676 89.621 166.406 88.8603 165.899C88.0997 165.392 87.5068 164.672 87.1568 163.83C86.8067 162.988 86.7151 162.061 86.8936 161.166C87.072 160.272 87.5126 159.451 88.1594 158.806C88.8063 158.161 89.6304 157.722 90.5276 157.544C91.4249 157.367 92.3548 157.458 93.2 157.807C94.0452 158.156 94.7675 158.747 95.2758 159.505C95.784 160.263 96.0553 161.154 96.0553 162.066C96.0506 163.287 95.5617 164.457 94.6953 165.32C93.829 166.184 92.6552 166.671 91.43 166.676Z" fill="#E7E7E7"/>
<path d="M207.17 197.338C206.255 197.338 205.361 197.068 204.6 196.561C203.839 196.055 203.246 195.335 202.896 194.492C202.546 193.65 202.455 192.723 202.633 191.829C202.812 190.934 203.252 190.113 203.899 189.468C204.546 188.823 205.37 188.384 206.267 188.207C207.165 188.029 208.095 188.12 208.94 188.469C209.785 188.818 210.507 189.409 211.015 190.167C211.524 190.925 211.795 191.816 211.795 192.728C211.797 193.334 211.679 193.935 211.448 194.495C211.216 195.055 210.875 195.564 210.445 195.993C210.015 196.422 209.505 196.761 208.942 196.992C208.38 197.223 207.778 197.34 207.17 197.338Z" fill="#01BEDE"/>
<path d="M178.235 197.338C177.322 197.338 176.43 197.069 175.671 196.565C174.911 196.06 174.318 195.344 173.967 194.504C173.615 193.665 173.521 192.741 173.695 191.848C173.869 190.955 174.304 190.134 174.946 189.487C175.587 188.84 176.406 188.397 177.3 188.213C178.193 188.029 179.122 188.113 179.968 188.454C180.814 188.794 181.54 189.377 182.054 190.128C182.569 190.879 182.849 191.765 182.86 192.674C182.869 193.285 182.757 193.891 182.528 194.458C182.3 195.024 181.961 195.54 181.53 195.974C181.099 196.408 180.586 196.753 180.02 196.987C179.454 197.221 178.847 197.34 178.235 197.338Z" fill="#E7E7E7"/>
<path d="M149.3 197.338C148.385 197.338 147.491 197.068 146.73 196.561C145.969 196.055 145.377 195.335 145.027 194.492C144.677 193.65 144.585 192.723 144.763 191.829C144.942 190.934 145.382 190.113 146.029 189.468C146.676 188.823 147.5 188.384 148.397 188.207C149.295 188.029 150.225 188.12 151.07 188.469C151.915 188.818 152.637 189.409 153.146 190.167C153.654 190.925 153.925 191.816 153.925 192.728C153.927 193.334 153.809 193.935 153.578 194.495C153.346 195.055 153.006 195.564 152.576 195.993C152.146 196.422 151.635 196.761 151.073 196.992C150.51 197.223 149.908 197.34 149.3 197.338Z" fill="#E7E7E7"/>
<path d="M120.365 197.338C119.451 197.345 118.555 197.082 117.791 196.582C117.027 196.082 116.429 195.368 116.072 194.529C115.715 193.69 115.615 192.765 115.785 191.87C115.955 190.975 116.387 190.15 117.027 189.5C117.667 188.849 118.486 188.403 119.381 188.216C120.275 188.029 121.206 188.111 122.054 188.45C122.902 188.79 123.63 189.372 124.146 190.124C124.663 190.876 124.944 191.763 124.954 192.674C124.961 193.281 124.848 193.883 124.621 194.447C124.394 195.01 124.058 195.523 123.631 195.956C123.205 196.389 122.697 196.734 122.136 196.972C121.576 197.209 120.974 197.333 120.365 197.338Z" fill="#E7E7E7"/>
<path d="M91.43 197.338C90.5152 197.338 89.621 197.068 88.8603 196.561C88.0997 196.055 87.5068 195.335 87.1568 194.492C86.8067 193.65 86.7151 192.723 86.8936 191.829C87.072 190.934 87.5126 190.113 88.1594 189.468C88.8063 188.823 89.6304 188.384 90.5276 188.207C91.4249 188.029 92.3548 188.12 93.2 188.469C94.0452 188.818 94.7675 189.409 95.2758 190.167C95.784 190.925 96.0553 191.816 96.0553 192.728C96.0553 193.951 95.568 195.123 94.7005 195.988C93.8331 196.852 92.6567 197.338 91.43 197.338Z" fill="#E7E7E7"/>
<path d="M207.17 228C206.255 228 205.361 227.73 204.6 227.223C203.839 226.717 203.246 225.997 202.896 225.154C202.546 224.312 202.455 223.385 202.633 222.491C202.812 221.596 203.252 220.775 203.899 220.13C204.546 219.486 205.37 219.046 206.267 218.869C207.165 218.691 208.095 218.782 208.94 219.131C209.785 219.48 210.507 220.071 211.015 220.829C211.524 221.587 211.795 222.478 211.795 223.39C211.797 223.996 211.679 224.597 211.448 225.157C211.216 225.717 210.875 226.227 210.445 226.655C210.015 227.084 209.505 227.423 208.942 227.654C208.38 227.885 207.778 228.002 207.17 228Z" fill="#E7E7E7"/>
<path d="M178.235 228C177.32 228 176.426 227.73 175.665 227.223C174.904 226.717 174.312 225.997 173.961 225.154C173.611 224.312 173.52 223.385 173.698 222.491C173.877 221.596 174.317 220.775 174.964 220.13C175.611 219.486 176.435 219.046 177.332 218.869C178.23 218.691 179.16 218.782 180.005 219.131C180.85 219.48 181.572 220.071 182.08 220.829C182.589 221.587 182.86 222.478 182.86 223.39C182.862 223.996 182.744 224.597 182.513 225.157C182.281 225.717 181.941 226.227 181.511 226.655C181.081 227.084 180.57 227.423 180.007 227.654C179.445 227.885 178.843 228.002 178.235 228Z" fill="#E7E7E7"/>
<path d="M149.3 228C148.385 228 147.491 227.73 146.73 227.223C145.969 226.717 145.377 225.997 145.027 225.154C144.677 224.312 144.585 223.385 144.763 222.491C144.942 221.596 145.382 220.775 146.029 220.13C146.676 219.486 147.5 219.046 148.397 218.869C149.295 218.691 150.225 218.782 151.07 219.131C151.915 219.48 152.637 220.071 153.146 220.829C153.654 221.587 153.925 222.478 153.925 223.39C153.927 223.996 153.809 224.597 153.578 225.157C153.346 225.717 153.006 226.227 152.576 226.655C152.146 227.084 151.635 227.423 151.073 227.654C150.51 227.885 149.908 228.002 149.3 228Z" fill="#E7E7E7"/>
<path d="M120.365 228C119.45 228 118.556 227.73 117.795 227.223C117.035 226.717 116.442 225.997 116.092 225.154C115.742 224.312 115.65 223.385 115.828 222.491C116.007 221.596 116.447 220.775 117.094 220.13C117.741 219.486 118.565 219.046 119.462 218.869C120.36 218.691 121.29 218.782 122.135 219.131C122.98 219.48 123.702 220.071 124.211 220.829C124.719 221.587 124.99 222.478 124.99 223.39C124.99 224.613 124.503 225.785 123.635 226.65C122.768 227.514 121.592 228 120.365 228Z" fill="#6D4BDE"/>
<path d="M91.43 228C90.5152 228 89.621 227.73 88.8603 227.223C88.0997 226.717 87.5068 225.997 87.1568 225.154C86.8067 224.312 86.7151 223.385 86.8936 222.491C87.072 221.596 87.5126 220.775 88.1594 220.13C88.8063 219.486 89.6304 219.046 90.5276 218.869C91.4249 218.691 92.3548 218.782 93.2 219.131C94.0452 219.48 94.7675 220.071 95.2758 220.829C95.784 221.587 96.0553 222.478 96.0553 223.39C96.0553 224.613 95.568 225.785 94.7005 226.65C93.8331 227.514 92.6567 228 91.43 228Z" fill="#E7E7E7"/>
<path d="M62.4951 166.676C61.5803 166.676 60.686 166.406 59.9254 165.899C59.1648 165.392 58.572 164.672 58.2219 163.83C57.8718 162.988 57.7802 162.061 57.9587 161.166C58.1372 160.272 58.5777 159.451 59.2245 158.806C59.8714 158.161 60.6956 157.722 61.5928 157.544C62.49 157.367 63.4199 157.458 64.2651 157.807C65.1103 158.156 65.8327 158.747 66.3409 159.505C66.8491 160.263 67.1204 161.154 67.1204 162.066C67.1156 163.287 66.6268 164.457 65.7604 165.32C64.894 166.184 63.7204 166.671 62.4951 166.676Z" fill="#E7E7E7"/>
<path d="M33.5243 166.676C32.6096 166.676 31.7153 166.406 30.9547 165.899C30.194 165.392 29.6012 164.672 29.2511 163.83C28.9011 162.988 28.8095 162.061 28.9879 161.166C29.1664 160.272 29.6069 159.451 30.2538 158.806C30.9006 158.161 31.7248 157.722 32.622 157.544C33.5192 157.367 34.4492 157.458 35.2944 157.807C36.1395 158.156 36.8619 158.747 37.3701 159.505C37.8784 160.263 38.1496 161.154 38.1496 162.066C38.1496 163.288 37.6623 164.461 36.7949 165.326C35.9275 166.19 34.751 166.676 33.5243 166.676Z" fill="#E7E7E7"/>
<path d="M4.62528 166.676C3.70973 166.679 2.81371 166.412 2.05073 165.908C1.28775 165.403 0.692111 164.684 0.339284 163.842C-0.0135429 163 -0.107696 162.073 0.0687422 161.177C0.24518 160.282 0.684277 159.459 1.33041 158.812C1.97655 158.166 2.80068 157.725 3.69838 157.546C4.59608 157.366 5.52702 157.457 6.37322 157.805C7.21942 158.153 7.94285 158.744 8.45188 159.503C8.96091 160.261 9.23264 161.153 9.23265 162.066C9.23266 163.285 8.7478 164.455 7.88426 165.319C7.02073 166.183 5.84887 166.671 4.62528 166.676Z" fill="#E7E7E7"/>
<path d="M62.4951 197.338C61.5803 197.338 60.686 197.068 59.9254 196.561C59.1648 196.055 58.572 195.335 58.2219 194.492C57.8718 193.65 57.7802 192.723 57.9587 191.829C58.1372 190.934 58.5777 190.113 59.2245 189.468C59.8714 188.823 60.6956 188.384 61.5928 188.207C62.49 188.029 63.4199 188.12 64.2651 188.469C65.1103 188.818 65.8327 189.409 66.3409 190.167C66.8491 190.925 67.1204 191.816 67.1204 192.728C67.1204 193.951 66.6331 195.123 65.7657 195.988C64.8983 196.852 63.7218 197.338 62.4951 197.338Z" fill="#01BEDE"/>
<path d="M33.5243 197.338C32.6134 197.331 31.7249 197.056 30.9702 196.547C30.2155 196.039 29.6282 195.319 29.2821 194.48C28.936 193.64 28.8464 192.717 29.0246 191.826C29.2028 190.936 29.6408 190.118 30.2837 189.474C30.9266 188.831 31.7457 188.391 32.6384 188.21C33.5311 188.029 34.4575 188.115 35.3015 188.457C36.1454 188.799 36.8694 189.381 37.3824 190.132C37.8955 190.882 38.1748 191.766 38.1855 192.674C38.1951 193.288 38.0813 193.897 37.8506 194.466C37.62 195.035 37.2773 195.552 36.8428 195.987C36.4083 196.422 35.8908 196.765 35.3208 196.997C34.7508 197.229 34.14 197.345 33.5243 197.338Z" fill="#E7E7E7"/>
<path d="M4.62528 197.338C3.70973 197.341 2.81371 197.074 2.05073 196.57C1.28775 196.065 0.692111 195.347 0.339284 194.504C-0.0135429 193.662 -0.107696 192.735 0.0687422 191.84C0.24518 190.944 0.684277 190.121 1.33041 189.474C1.97655 188.828 2.80068 188.387 3.69838 188.208C4.59608 188.028 5.52702 188.119 6.37322 188.467C7.21942 188.816 7.94285 189.406 8.45188 190.165C8.96091 190.923 9.23264 191.815 9.23265 192.728C9.23501 193.332 9.11758 193.932 8.8871 194.491C8.65662 195.05 8.31758 195.558 7.88951 195.987C7.46145 196.415 6.95275 196.755 6.39259 196.987C5.83243 197.219 5.23184 197.338 4.62528 197.338Z" fill="#E7E7E7"/>
<path d="M62.4951 228C61.5803 228 60.686 227.73 59.9254 227.223C59.1648 226.717 58.572 225.997 58.2219 225.154C57.8718 224.312 57.7802 223.385 57.9587 222.491C58.1372 221.596 58.5777 220.775 59.2245 220.13C59.8714 219.486 60.6956 219.046 61.5928 218.869C62.49 218.691 63.4199 218.782 64.2651 219.131C65.1103 219.48 65.8327 220.071 66.3409 220.829C66.8491 221.587 67.1204 222.478 67.1204 223.39C67.1204 224.613 66.6331 225.785 65.7657 226.65C64.8983 227.514 63.7218 228 62.4951 228Z" fill="#E7E7E7"/>
<path d="M33.5243 228C32.6096 228 31.7153 227.73 30.9547 227.223C30.194 226.717 29.6012 225.997 29.2511 225.154C28.9011 224.312 28.8095 223.385 28.9879 222.491C29.1664 221.596 29.6069 220.775 30.2538 220.13C30.9006 219.486 31.7248 219.046 32.622 218.869C33.5192 218.691 34.4492 218.782 35.2944 219.131C36.1395 219.48 36.8619 220.071 37.3701 220.829C37.8784 221.587 38.1496 222.478 38.1496 223.39C38.152 223.996 38.034 224.597 37.8024 225.157C37.5708 225.717 37.2301 226.227 36.8002 226.655C36.3702 227.084 35.8594 227.423 35.2972 227.654C34.7349 227.885 34.1324 228.002 33.5243 228Z" fill="#E7E7E7"/>
<path d="M4.62528 228C3.70973 228.004 2.81371 227.736 2.05073 227.232C1.28775 226.727 0.692111 226.009 0.339284 225.167C-0.0135429 224.325 -0.107696 223.397 0.0687422 222.502C0.24518 221.606 0.684277 220.783 1.33041 220.137C1.97655 219.49 2.80068 219.049 3.69838 218.87C4.59608 218.691 5.52702 218.781 6.37322 219.129C7.21942 219.478 7.94285 220.068 8.45188 220.827C8.96091 221.585 9.23264 222.477 9.23265 223.39C9.23501 223.995 9.11758 224.594 8.8871 225.153C8.65662 225.712 8.31758 226.22 7.88951 226.649C7.46145 227.077 6.95275 227.417 6.39259 227.649C5.83243 227.881 5.23184 228 4.62528 228Z" fill="#E7E7E7"/>
</g>
<defs>
<clipPath id="clip0_1_561">
<rect width="255" height="228" fill="white"/>
</clipPath>
</defs>
</svg>
