<svg width="307" height="324" viewBox="0 0 307 324" fill="none" xmlns="http://www.w3.org/2000/svg">
<mask id="mask0_1_108" style="mask-type:luminance" maskUnits="userSpaceOnUse" x="0" y="0" width="307" height="324">
<path d="M153.61 323.031C238.209 323.031 306.79 250.922 306.79 161.97C306.79 73.0183 238.209 0.908691 153.61 0.908691C69.0113 0.908691 0.430191 73.0183 0.430191 161.97C0.430191 250.922 69.0113 323.031 153.61 323.031Z" fill="white"/>
</mask>
<g mask="url(#mask0_1_108)">
<path d="M308.973 63.1992L-3.74773 257.193L-1.75227 260.749L310.969 66.7555L308.973 63.1992Z" fill="#01BEDE"/>
<path d="M300.182 47.5742L-12.5386 241.568L-10.5431 245.124L302.178 51.1304L300.182 47.5742Z" fill="#01BEDE"/>
<path d="M291.413 31.9473L-21.3083 225.941L-19.3128 229.497L293.408 35.5035L291.413 31.9473Z" fill="#01BEDE"/>
<path d="M273.852 0.621117L-38.8688 194.615L-36.8733 198.171L275.848 4.17732L273.852 0.621117Z" fill="#01BEDE"/>
<path d="M282.262 13.3073L-29.9963 208.011L-27.9936 211.562L284.265 16.8583L282.262 13.3073Z" fill="#01BEDE"/>
<path d="M265.068 -15.0357L-47.6525 178.958L-45.6571 182.514L267.064 -11.4794L265.068 -15.0357Z" fill="#01BEDE"/>
<path d="M256.287 -30.6846L-56.4343 163.309L-54.4389 166.865L258.282 -27.1284L256.287 -30.6846Z" fill="#01BEDE"/>
<path d="M247.496 -46.354L-65.2252 147.64L-63.2297 151.196L249.491 -42.7978L247.496 -46.354Z" fill="#01BEDE"/>
<path d="M238.726 -61.9663L-73.9948 132.027L-71.9994 135.584L240.722 -58.4101L238.726 -61.9663Z" fill="#01BEDE"/>
<path d="M388.016 204.073L75.2952 398.066L77.2906 401.623L390.012 207.629L388.016 204.073Z" fill="#01BEDE"/>
<path d="M379.225 188.462L66.5043 382.456L68.4998 386.012L381.221 192.019L379.225 188.462Z" fill="#01BEDE"/>
<path d="M361.453 153.803L49.1951 348.506L51.1978 352.057L363.456 157.353L361.453 153.803Z" fill="#01BEDE"/>
<path d="M370.455 172.791L57.7346 366.785L59.7301 370.341L372.451 176.347L370.455 172.791Z" fill="#01BEDE"/>
<path d="M352.883 141.488L40.162 335.481L42.1575 339.038L354.878 145.044L352.883 141.488Z" fill="#01BEDE"/>
<path d="M344.099 125.86L31.3783 319.854L33.3737 323.41L346.095 129.417L344.099 125.86Z" fill="#01BEDE"/>
<path d="M335.329 110.174L22.6086 304.168L24.604 307.724L337.325 113.731L335.329 110.174Z" fill="#01BEDE"/>
<path d="M326.539 94.4902L13.8177 288.484L15.8132 292.04L328.534 98.0465L326.539 94.4902Z" fill="#01BEDE"/>
<path d="M317.769 78.878L5.0481 272.872L7.04354 276.428L319.764 82.4342L317.769 78.878Z" fill="#01BEDE"/>
</g>
</svg>
