<svg width="899" height="1022" viewBox="0 0 899 1022" fill="none" xmlns="http://www.w3.org/2000/svg">
<g opacity="0.12">
<path fill-rule="evenodd" clip-rule="evenodd" d="M383.288 369.748C383.229 356.294 359.496 341.165 349.358 333.365C329.313 317.938 308.465 303.692 287.81 289.218C267.156 274.744 246.445 260.31 226.75 244.42C213.961 234.105 198.935 222.488 190.262 207.759C171.786 176.371 230.04 181.032 245.129 180.346C283.517 178.592 327.547 179.392 363.529 163.047C385.009 153.289 393.575 136.924 388.961 113.073C387.474 105.317 383.073 96.3908 386.801 88.8341C390.783 80.7635 399.943 76.1064 407.545 72.9833C435.274 61.6052 467.156 60.2869 496.495 58.8587C528.131 57.2893 560.065 57.7484 591.478 57.6268C604.798 57.5758 618.709 52.5262 631.394 48.4223C648.022 43.0432 664.454 37.001 680.945 31.159C717.224 18.337 754.608 4.83239 792.992 1.5759C817.029 -0.464314 843.301 2.2939 861.974 20.0398C871.35 28.95 876.257 42.1957 881.677 53.9622C888.239 68.177 894.54 82.5291 901.525 96.5203C924.028 141.581 956.155 185.615 1008.3 187.828C1016.19 188.161 1023.94 187.074 1031.79 186.87C1036.79 186.745 1041.24 188.02 1043.1 193.54C1047.77 207.386 1033.08 229.244 1027.06 240.23C1013.87 264.277 999.003 287.245 985.073 310.809C975.858 326.393 959.906 347.69 959.738 366.625C959.59 383.496 980.854 395.69 992.431 404C1003.28 411.78 1022.93 422.668 1024.12 438.495C1024.7 446.169 1019.9 452.529 1014.9 457.465C1006.12 466.097 996.007 472.186 988.111 482.034C975.163 498.191 964.344 520.421 966.103 542.193C967.322 557.278 975.479 567.158 985.854 576.602C990.215 580.572 993.754 583.381 993.984 589.828C994.356 600.064 990.557 610.897 987.427 620.388C976.229 654.353 960.326 687.197 942.634 717.863C933.794 733.188 924.243 748.466 912.522 761.539C904.845 770.123 894.492 780.34 882.781 780.328C869.224 780.328 854.878 775.165 841.699 771.304C817.085 764.089 792.769 755.748 768.549 747.191C712.538 727.393 657.053 705.992 602.096 682.987C563.385 666.755 523.852 650.5 487.458 628.921C480.36 624.684 473.66 619.743 467.45 614.165C460.814 608.307 452.58 605.686 444.23 603.732C392.407 591.605 335.633 600.915 283.595 606.754C270.386 608.233 257.178 609.72 243.932 610.756C232.545 611.646 218.913 614.2 207.846 610.363C186.039 602.81 205.102 574.973 213.162 563.631C241.538 523.693 278.149 489.904 312.082 455.409C328.216 438.982 344.473 422.597 359.73 405.24C367.674 396.216 383.34 381.542 383.288 369.748Z" stroke="#0881B9"/>
<path fill-rule="evenodd" clip-rule="evenodd" d="M393.067 367.48C384.369 353.244 369.109 342.722 356.442 332.819C338.214 318.564 319.413 305.1 300.894 291.249C283.384 278.15 265.836 264.902 249.62 250.027C239.732 240.956 227.325 230.109 222.642 216.692C212.482 187.613 267.138 192.025 280.631 191.264C314.175 189.381 352.205 188.95 383.238 173.639C402.616 164.078 410.577 148.223 406.444 126.21C405.016 118.594 402.441 112.091 405.7 104.515C409.469 95.7456 418.137 90.2787 426.083 86.4197C450.974 74.3289 480.396 71.7602 507.378 69.6228C535.253 67.4149 564.295 65.8579 591.273 67.4737C602.062 68.1168 614.479 64.4657 625.156 61.6656C641.584 57.3516 657.845 52.3749 674.191 47.7473C707.411 38.3351 741.495 29.268 776.054 28.2366C801.005 27.4915 827.02 31.5308 847.778 47.1433C868.815 62.9754 878.148 87.5177 889.815 110.848C909.963 151.183 937.175 200.225 983.788 208.747C990.856 210.041 997.649 209.339 1004.71 209.657C1008.34 209.818 1012.47 210.327 1014.32 214.104C1019.1 223.908 1006 241.835 1001.59 249.345C989.409 270.099 975.715 289.837 962.952 310.191C952.815 326.352 939.965 344.31 936.044 363.468C931.286 386.716 962.375 403.258 973.309 419.627C992.262 448.013 956.352 464.186 938.648 477.72C918.318 493.258 901.537 521.604 919.761 545.645C926.733 554.837 935.311 560.316 938.425 572.313C943.295 591.074 939.612 612.515 935.661 631.061C929.709 658.94 920.29 686.518 907.485 711.715C898.311 729.755 883.093 758.043 860.805 755.921C845.802 754.505 830.55 749.333 815.941 744.76C794.067 737.916 772.468 730.116 750.985 722.014C701.392 703.362 652.346 682.796 604.264 660.176C571.457 644.736 479.942 581.639 473.056 579.388C452.525 572.681 429.181 573.862 408.014 574.901C379.857 576.282 351.841 579.858 323.847 583.172C310.522 584.741 297.129 586.658 283.733 587.431C274.199 587.98 261.677 588.451 253.325 582.603C237.024 571.195 255.185 545.092 262.696 534.048C285.705 500.192 314.811 470.873 342.102 440.895C355.494 426.177 369.091 411.482 381.248 395.583C386.151 389.163 398.442 376.272 393.067 367.48Z" stroke="#0881B9"/>
<path fill-rule="evenodd" clip-rule="evenodd" d="M405.1 360.179C381.347 331.691 348.563 310.504 320.268 286.712C306.067 274.767 291.776 262.496 279.528 248.268C273.156 240.869 265.2 231.513 263.973 221.2C260.692 193.611 309.954 197.341 324.698 196.294C353.205 194.262 385.408 192.72 411.27 178.641C427.071 170.034 434.852 155.908 431.899 137.341C430.59 129.103 428.551 122.105 431.899 114.016C435.291 105.821 442.358 100.039 449.515 95.7042C470.08 83.2374 495.637 79.2517 518.791 76.2821C545.954 72.8233 573.32 71.4728 600.67 72.2416C624.624 72.9046 648.462 65.4472 671.851 60.5319C702.835 54.0239 734.38 48.3397 766.086 49.1988C791.126 49.8814 816.363 55.2439 837.769 69.4956C859.521 84.0101 872.598 105.735 884.389 129.178C902.213 164.617 924.427 212.107 963.53 225.566C969.217 227.528 974.518 227.743 980.383 228.085C983.233 228.249 986.911 228.3 988.325 231.435C991.724 238.982 979.156 253.615 975.649 258.714C964.453 274.994 952.316 290.54 940.841 306.604C930.129 321.601 918.46 337.23 911.806 354.804C901.217 382.794 935.072 399.16 934.123 425.831C933.532 442.39 918.501 454.264 906.599 462.479C891.944 472.58 870.843 479.221 863.508 497.655C858.044 511.385 866.617 519.376 873.22 529.795C884.408 547.448 885.171 571.377 884.006 591.811C882.437 619.424 876.303 647.445 865.862 672.826C861.131 684.332 855.336 696.3 846.803 705.236C838.81 713.612 831.245 715.757 820.562 714.043C787.86 708.787 754.841 694.135 723.482 681.048C684.081 664.604 645.223 646.449 607.525 626.022C581.819 612.092 555.533 597.354 532.97 578.109C527.09 573.091 521.068 567.639 516.768 561.021C513.517 556.047 512.137 551.939 506.658 549.099C490.419 540.685 467.83 542.885 450.43 543.76C422.608 545.153 394.919 548.86 367.268 552.198C351.133 554.16 320.737 560.33 307.852 545.529C296.731 532.749 310.151 510.957 317.006 499.699C334.347 471.227 356.653 446.238 377.348 420.508C386.833 408.716 396.69 396.834 404.523 383.724C406.524 380.381 409.731 375.952 410.281 371.892C410.899 367.24 408.016 363.69 405.1 360.179Z" stroke="#0881B9"/>
<path fill-rule="evenodd" clip-rule="evenodd" d="M407.142 366.81C385.193 341.622 358.75 320.929 335.187 297.358C324.622 286.789 313.953 275.703 305.903 262.81C301.573 255.877 296.974 247.15 298.169 238.533C301.595 213.8 342.11 216.034 358.479 214.585C382.801 212.457 410.743 210.314 432.249 196.977C446.337 188.242 451.619 175.342 448.989 158.704C446.165 140.857 452.478 127.902 466.846 117.946C484.858 105.473 507.596 100.389 528.51 96.7774C553.708 92.4467 579.225 90.527 604.75 91.0417C629.574 91.5442 653.625 87.1551 678.285 84.301C710.981 80.5204 744.726 78.6556 777.054 86.4053C805.2 93.1538 830.623 108.025 849.681 131.023C869.588 155.026 879.442 185.267 895.606 211.821C905.688 228.384 919.746 250.295 938.584 256.733C944.868 258.88 956.318 255.983 951.3 266.548C948.432 272.59 943.063 277.89 938.823 282.828C931.97 290.81 924.891 298.571 917.923 306.442C903.072 323.222 887.169 340.358 876.038 360.227C862.014 385.242 882.861 404.495 880.32 429.86C878.955 443.51 869.96 454.404 860.444 462.963C854.287 468.506 847.55 473.308 840.671 477.787C833.488 482.467 824.987 486.031 818.723 492.081C809.794 500.69 813.671 510.882 815.345 522.012C818.291 541.571 818.939 561.44 817.272 581.167C815.233 605.346 810.453 630.217 800.383 652.19C796.465 660.744 791.503 669.813 784.133 675.549C776.764 681.284 769.141 680.892 760.697 679.164C735.649 674.061 710.654 662.185 686.893 650.93C657.155 636.84 628 621.093 600.159 603.179C580.941 590.813 561.66 577.453 545.582 560.686C540.905 555.806 536.456 550.58 532.859 544.747C530.389 540.746 529.064 535.584 525.486 532.576C514.288 523.19 491.807 525.993 478.675 526.538C452.467 527.626 426.672 532.796 400.497 534.053C386.212 534.74 363.84 536.467 353.349 523.633C343.483 511.569 352.419 492.568 358.315 480.943C369.903 458.087 385.472 437.723 399.426 416.477C405.162 407.734 411.449 398.586 415.166 388.603C418.469 379.707 412.766 373.269 407.142 366.81Z" stroke="#0881B9"/>
<path fill-rule="evenodd" clip-rule="evenodd" d="M412.54 367.223C395.07 345.058 374.009 325.382 356.412 302.856C346.112 289.665 328.374 267.488 336.339 248.89C345.078 228.454 375.54 227.897 393.148 226.251C414.105 224.291 438.716 221.613 456.651 208.853C462.323 204.819 467.155 199.479 469.204 192.446C471.397 184.92 468.999 178.334 468.687 170.799C468.033 154.992 476.976 142.303 488.811 133.588C505.538 121.267 526.454 115.441 546.211 111.38C568.594 106.799 591.348 104.541 614.148 104.637C635.938 104.715 657.497 104.206 679.309 103.618C707.834 102.834 736.761 104.1 764.431 112.093C791.689 119.973 816.471 134.74 835.937 156.463C854.928 177.659 867.741 203.568 878.963 229.959C885.33 244.938 896.087 267.323 911.275 274.889C918.029 278.257 924.657 278.025 917.476 286.783C908.432 297.811 896.243 306.659 885.769 316.091C870.659 329.702 855.169 343.58 842.487 359.762C834.387 370.096 830.778 380.124 831.335 393.504C831.766 403.696 833.722 413.783 832.733 424.015C830.417 448.031 812.49 464.499 796.64 479.835C786.444 489.699 777.132 497.222 771.884 511.252C765.676 527.835 763.071 545.876 758.922 563.094C754.365 582.001 749.102 601.669 739.155 618.322C730.301 633.148 719.532 639.797 703.415 635.802C678.276 629.577 653.498 614.241 631.18 600.054C608.465 585.619 586.14 569.389 567.317 549.549C557.154 538.835 550.218 526.255 541.193 514.745C529.841 500.295 504.159 505.768 488.897 506.991C463.561 509.022 383.84 524.217 391.196 475.002C394.267 454.46 406.358 435.501 415.201 417.374C418.867 409.851 424.171 400.823 425 392.202C425.903 382.813 417.792 373.895 412.54 367.223Z" stroke="#0881B9"/>
<path fill-rule="evenodd" clip-rule="evenodd" d="M421.764 369.105C408.414 349.019 392.436 330.043 380.981 308.348C373.549 294.299 366.252 275.527 375.838 260.661C386.658 243.886 410.517 239.975 428.047 237.837C446.109 235.637 467.672 233.786 482.434 221.066C487.131 217.014 491.002 211.55 491.723 205.008C492.418 198.732 490.456 192.457 491.107 186.067C492.563 171.72 500.808 159.898 511.439 151.324C542.885 125.958 589.688 120.318 627.629 119.655C646.62 119.326 666.164 121.055 685.278 122.295C710.08 123.903 734.92 127.355 758.574 135.674C808.866 153.355 842.575 192.57 866.117 241.368C873.527 256.727 879.197 273.346 890.808 285.689C896.794 292.063 895.486 296.64 889.367 302.453C879.799 311.537 868.128 318.48 857.508 326.061C842.404 336.844 826.976 347.787 813.618 360.703C804.411 369.607 797.875 378.185 795.891 391.536C794.475 401.056 794.806 410.755 793.955 420.334C792.335 438.529 786.787 456.587 776.967 471.68C769.164 483.643 759.874 494.516 750.273 504.882C737.792 518.379 727.236 532.091 717.757 548.11C705.19 569.314 687.533 608.427 657.934 598.076C625.288 586.654 594.689 557.633 573.744 529.514C566.71 520.073 560.936 508.495 551.45 501.533C537.248 491.127 522.839 491.492 505.947 491.535C480.658 491.594 425.628 497.387 425.034 457.411C424.8 441.573 431.295 426.598 434.405 411.363C437.913 394.301 430.882 382.793 421.764 369.105Z" stroke="#0881B9"/>
<path fill-rule="evenodd" clip-rule="evenodd" d="M431.708 370.896C418.502 344.717 388.891 301.7 411.413 272.589C423.31 257.205 444.352 251.424 462.004 247.979C476.209 245.192 493.341 244.145 504.074 232.332C511.963 223.646 508.461 211.006 511.483 200.133C515.235 186.654 523.845 175.624 534.426 167.334C563.993 144.166 605.104 137.056 640.672 135.543C677.611 133.975 718.313 141.308 753.074 155.415C796.416 173.01 828.887 206.326 851.595 248.516C855.785 256.304 859.592 264.296 863.614 272.178C866.317 277.465 870.325 282.58 872.455 288.142C876.002 297.416 871.823 304.996 865.124 311.04C855.487 319.742 843.65 325.934 832.664 332.464C817.641 341.401 802.283 350.177 788.308 360.662C778.916 367.717 769.087 375.317 765.726 387.558C763.432 395.906 762.956 404.749 763.038 413.395C763.216 431.935 762.294 446.927 754.093 463.906C740.598 491.782 719.845 516.848 697.921 537.703C680.716 554.071 653.491 579.498 628.422 568.554C605.929 558.755 592.772 535.301 577.953 516.338C570.748 507.119 562.655 498.7 553.145 492.143C541.155 483.876 529.868 480.408 515.662 479.055C491.753 476.778 455.702 476.186 448.311 445.927C445.583 434.761 447.14 423.194 445.709 411.882C443.839 396.925 438.37 384.1 431.708 370.896Z" stroke="#0881B9"/>
<path fill-rule="evenodd" clip-rule="evenodd" d="M445.439 371.865C436.036 343.22 423.682 307.121 446.394 281.662C457.395 269.329 472.87 262.435 487.846 257.283C498.572 253.591 515.603 252.504 522.179 241.152C527.009 232.798 527.678 221.273 532.047 212.323C538.051 200.018 547.147 189.882 557.817 181.948C585.615 161.273 621.821 153.284 654.839 150.996C726.582 146.033 799.581 185.566 837.972 250.608C849.419 269.996 864.194 290.632 845.696 310.44C825.499 332.049 795.074 342.173 770.969 357.527C761.759 363.389 750.022 370.437 744.884 381.051C741.793 387.431 741.581 395.436 741.44 402.46C741.068 420.349 739.66 436.437 732.843 453.129C722.313 478.925 705.524 502.723 686.497 522.217C669.905 539.215 646.242 559.192 622.144 546.938C603.668 537.52 591.95 517.532 577.594 502.798C561.618 486.388 541.86 475.33 520.162 469.927C499.055 464.685 475.905 461.149 464.781 438.877C460.966 431.237 456.979 421.345 455.549 412.889C453.239 398.947 449.859 385.227 445.439 371.865Z" stroke="#0881B9"/>
<path fill-rule="evenodd" clip-rule="evenodd" d="M460.75 372.067C456.4 343.142 455.916 312.981 476.128 290.184C485.562 279.549 497.486 271.993 509.544 265.147C518.416 260.11 527.578 255.861 534.204 247.603C540.342 239.957 545.009 231.079 550.936 223.233C558.754 212.835 568.108 203.834 578.64 196.576C605.039 178.416 637.154 169.922 667.878 166.976C682.75 165.544 698.884 164.799 713.656 168.702C727.923 172.469 742.03 178.424 755.148 185.368C783.035 200.114 807.203 221.711 824.724 249.016C836.737 267.744 843.233 285.955 827.676 304.955C810.137 326.371 782.637 338.187 759.971 352.087C744.425 361.62 727.001 370.964 724.097 391.223C721.784 407.343 719.907 422.643 713.924 437.88C705.02 460.355 691.928 480.715 675.425 497.75C660.333 513.27 641.24 526.44 619.652 518.15C602.548 511.571 589.278 496.832 574.334 486.295C557.68 474.526 539.383 468.037 520.115 462.819C502.799 458.112 486.495 450.877 475.303 435.519C473.013 432.38 470.607 428.963 468.841 425.452C466.587 420.972 466.762 416.531 466.32 411.509C465.167 398.257 462.717 385.158 460.75 372.067Z" stroke="#0881B9"/>
<path fill-rule="evenodd" clip-rule="evenodd" d="M477.632 369.703C478.003 342.228 484.266 316.263 501.417 294.852C508.75 285.692 517.506 278.148 525.574 269.755C532.071 262.988 538.21 256.701 545.681 251.125C563.401 237.923 577.802 220.838 596.634 209.081C621.772 193.363 650.568 184.675 679.14 181.202C693.092 179.504 707.504 178.911 721.62 180.829C733.743 182.475 745.353 188.255 756.124 194.169C777.233 205.753 797.73 222.217 811.436 243.047C841.655 288.969 782.076 322.357 751.496 341.91C737.433 350.904 715.944 361.321 710.184 379.137C706.066 391.864 703.557 404.808 698.254 417.142C684.009 450.267 655.091 489.227 616.554 484.04C600.064 481.824 585.035 472.821 569.641 466.778C553.79 460.554 537.43 457.084 520.955 453.277C505.557 449.721 493.285 444.66 483.34 431.091C478.587 424.612 479.007 416.855 478.583 408.906C477.892 395.849 477.464 382.717 477.632 369.703Z" stroke="#0881B9"/>
<path fill-rule="evenodd" clip-rule="evenodd" d="M493.004 366.183C499.195 324.713 522.188 279.44 555.998 255.356C595.767 227.026 638.852 203.17 686.368 196.312C708.398 193.132 732.53 191.567 753.317 201.966C769.137 209.875 787.514 221.697 796.22 238.323C817.52 278.989 770.142 311.362 743.149 330.176C728.616 340.304 710.117 350.173 699.164 364.964C692.809 373.539 689.564 384.883 684.434 394.302C668.885 422.844 643.291 445.865 611.409 449.982C596.668 451.884 581.819 449.531 567.189 447.661C552.214 445.747 537.052 444.708 522.17 442.038C510.29 439.905 496.289 436.293 491.914 422.879C486.396 405.975 490.478 383.119 493.004 366.183Z" stroke="#0881B9"/>
<path fill-rule="evenodd" clip-rule="evenodd" d="M508.078 359.522C517.107 320.533 536.227 282.502 568.37 259.226C585.415 246.884 605.202 238.364 624.199 229.946C645.733 220.406 668.232 213.001 691.211 209.328C719.823 204.752 766.161 200.627 781.109 235.024C795.946 269.167 758.454 299.384 736.283 316.605C722.069 327.636 706.856 337.761 693.275 349.821C685.911 356.359 680.238 363.913 674.006 371.581C656.782 392.828 632.227 409.648 607.199 418.627C582.942 427.331 552.934 431.185 527.328 428.308C516.28 427.072 508.383 422.9 505.042 411.041C500.412 394.555 504.345 375.627 508.078 359.522Z" stroke="#0881B9"/>
<path fill-rule="evenodd" clip-rule="evenodd" d="M523.056 349.021C532.026 314.692 551.374 283.338 579.594 262.735C611.228 239.639 651.962 226.805 689.402 220.278C709.303 216.812 752.429 207.413 762.572 234.312C772.716 261.211 743.392 287.719 726.514 302.312C706.03 319.996 683.946 337.07 661.887 352.936C642.721 366.732 622.271 380.836 601.512 391.489C589.804 397.533 577.608 402.467 565.068 406.234C555.782 409.001 543.975 413.128 534.24 411.068C509.685 405.867 518.766 365.434 523.056 349.021Z" stroke="#0881B9"/>
<path fill-rule="evenodd" clip-rule="evenodd" d="M541.546 338.741C561.226 273.822 623.582 241.894 683.62 230.766C697.571 228.182 736.68 218.868 744.478 238.7C752.035 257.927 728.002 280.729 716.75 291.533C681.885 325.009 638.81 349.831 597.993 374.421C585.252 382.096 562.274 398.752 546.47 391.069C529.31 382.711 537.468 352.202 541.546 338.741Z" stroke="#0881B9"/>
<path fill-rule="evenodd" clip-rule="evenodd" d="M561.705 326.246C578.82 278.438 628.602 251.019 674.372 241.979C685.582 239.768 714.053 232.881 722.544 246.223C730.402 258.564 711.65 276.446 704.635 283.552C689.017 299.375 670.508 312.411 652.223 324.94C635.316 336.532 618.226 348.414 600.437 358.218C591.067 363.379 573.493 374.391 562.845 366.422C551.381 357.85 557.905 336.862 561.705 326.246Z" stroke="#0881B9"/>
<path fill-rule="evenodd" clip-rule="evenodd" d="M583.92 312.278C596.965 281.058 631.904 260.784 662.723 254.047C671.016 252.239 688.94 247.546 695.936 255.884C702.377 263.562 691.997 274.819 687.39 280.018C666.972 303.062 637.073 323.645 609.678 336.287C602.791 339.465 590.409 345.704 583.324 339.289C576.056 332.701 580.923 319.447 583.92 312.278Z" stroke="#0881B9"/>
<path fill-rule="evenodd" clip-rule="evenodd" d="M607.486 299.164C614.837 283.661 634.049 271.965 649.964 268.241C661.164 265.623 674.627 267.885 664.866 281.379C655.169 294.771 637.177 307.002 621.927 312.425C610.293 316.56 601.174 312.48 607.486 299.164Z" stroke="#0881B9"/>
<path fill-rule="evenodd" clip-rule="evenodd" d="M11.3881 406.538C10.9166 375.91 -4.50789 344.079 3.10968 312.871C9.36485 287.24 40.856 285.1 59.7477 273.488C74.7601 264.262 83.2798 247.919 91.3985 232.239C98.6931 218.161 105.245 203.661 112.93 189.814C117.904 180.863 126.446 163.286 137.234 162.968C147.561 162.663 157.031 176.36 163.03 184.457C170.852 195.011 177.787 206.263 185.382 216.986C198.182 235.072 213.539 248.46 231.124 261.131C251.136 275.548 271.478 289.472 292.15 302.905C307.371 312.824 322.695 322.669 337.325 333.568C346.502 340.407 366.756 353.238 366.849 365.846C366.893 371.862 361.492 378.524 357.85 383.333C351.688 391.473 344.664 398.915 337.618 406.197C324.495 419.761 310.816 432.71 297.284 445.816C279.722 462.825 262.946 479.555 247.507 498.865C231.544 518.853 216.294 539.499 200.732 559.862C190.193 573.658 179.665 589.15 164.463 597.615C145.423 608.197 129.794 597.039 110.539 596.91C93.9748 596.796 95.1961 556.288 93.0913 545.025C90.979 533.624 86.3238 523.011 84.5197 511.583C82.27 497.317 82.2403 482.722 81.6872 468.304C81.0153 450.668 80.748 433.878 62.8883 427.153C52.7241 423.332 41.7284 422.528 31.2078 420.239C24.3921 418.754 11.5366 416.215 11.3881 406.538Z" stroke="#0881B9"/>
<path fill-rule="evenodd" clip-rule="evenodd" d="M19.5314 401.09C17.7951 375.416 7.53745 342.555 17.2374 316.053C25.5246 293.406 51.442 290.47 68.8938 278.573C83.3006 268.76 89.714 252.703 96.9155 236.928C102.693 224.274 108.296 211.498 114.854 199.247C119.688 190.22 127.068 174.979 137.117 173.111C146.152 171.431 155.84 184.886 160.912 191.731C168.31 201.724 174.638 212.577 181.174 223.202C192.659 241.866 204.418 258.649 221.227 272.36C238.11 286.129 256.58 296.424 275.248 307.14C289.852 315.523 304.381 324.151 318.257 333.83C328.592 341.036 343.453 350.26 348.182 363.111C351.926 373.277 332.938 390.147 327.339 396.101C315.814 408.343 303.601 419.836 291.365 431.258C276.449 445.176 261.057 457.348 247.884 473.225C224.324 501.611 204.63 536.96 174.315 558.057C156.03 570.782 135.682 574.036 115.345 572.132C107.292 571.378 105.359 559.38 104.344 552.381C102.656 540.755 102.444 528.929 101.147 517.256C99.9308 506.328 97.2316 495.947 95.0566 485.231C92.8556 474.375 92.2384 463.251 90.6174 452.32C89.6136 445.533 88.6209 437.636 84.2301 432.18C79.6868 426.532 72.1916 424.165 65.6406 422.367C53.3381 419.023 20.7583 419.208 19.5314 401.09Z" stroke="#0881B9"/>
<path fill-rule="evenodd" clip-rule="evenodd" d="M30.0119 390.342C27.0919 366.776 23.0039 337.423 34.8997 315.711C44.6231 297.957 65.3607 294.127 80.1727 282.56C92.4925 272.94 97.1459 257.641 103.261 243.423C108.279 231.761 113.323 220.049 119.405 208.951C124.017 200.535 129.961 189.124 139.12 186.188C146.95 183.679 155.795 194.918 160.136 200.512C167.527 210.045 173.553 220.727 179.538 231.267C189.329 248.515 198.338 266.939 212.272 280.968C225.812 294.582 241.896 302.618 258.282 311.653C270.832 318.576 283.304 325.765 295.129 334.021C304.209 340.355 315.461 347.862 320.193 358.403C324.285 367.493 313.78 378.253 308.532 384.666C299.865 395.25 290.245 404.96 280.76 414.709C270.523 425.226 259.185 434.928 249.28 445.703C228.449 468.38 211.807 493.487 186.133 510.861C169.506 522.115 147.132 532.338 127.477 530.499C113.342 529.174 114.272 496.161 112.914 485.612C110.682 468.365 106.371 450.243 99.5228 434.355C93.6419 420.741 79.6668 416.543 66.8114 413.489C58.7581 411.573 50.318 410.538 42.5289 407.574C33.5122 404.14 31.2357 400.22 30.0119 390.342Z" stroke="#0881B9"/>
<path fill-rule="evenodd" clip-rule="evenodd" d="M39.7884 379.296C38.0498 359.371 38.4407 335.81 49.7025 318.575C59.5719 303.478 77.144 299.504 89.6418 287.611C99.3958 278.333 103.227 263.205 108.472 250.935C114.883 235.933 123.866 208.224 140.039 202.579C155.083 197.33 170.816 230.857 176.263 240.855C184.885 256.679 192.096 274.032 202.554 288.645C211.559 301.226 223.625 308.18 236.432 315.654C252.761 325.199 277.552 336.518 286.282 355.121C292.789 368.984 271.628 389.592 264.402 399.197C256.845 409.23 251.152 421.122 243.353 430.801C231.045 446.075 211.101 458.372 194.635 467.757C178.627 476.885 157.838 486.989 139.678 486.387C127.742 485.994 125.471 466.542 122.925 457.039C119.276 443.531 114.425 431.426 104.005 422.239C93.3982 412.886 80.8967 408.479 67.7549 404.622C61.009 402.656 53.3137 401.123 47.2789 397.152C40.6112 392.832 40.4585 386.954 39.7884 379.296Z" stroke="#0881B9"/>
<path fill-rule="evenodd" clip-rule="evenodd" d="M51.6999 367.811C51.7963 350.598 55.5257 332.243 66.584 318.965C75.7943 307.906 90.2109 304.209 99.0278 292.903C106.012 283.952 109.567 271.386 114.242 260.992C119.961 248.254 128.046 226.002 142.266 221.581C156.145 217.278 168.42 241.787 173.742 251.485C181.534 265.706 187.843 280.779 195.706 294.96C201.866 306.086 209.399 313.257 219.429 320.428C231.204 328.851 247.632 338.181 253.922 352.116C258.456 362.205 247.48 378.327 243.494 387.215C240.822 393.185 238.377 399.249 237.034 405.72C235.987 410.758 235.883 415.422 232.851 419.748C225.218 430.632 208.482 432.052 197.127 435.639C182.047 440.4 166.045 445.811 150.263 446.844C140.563 447.489 135.613 438.057 130.076 431.422C123.534 423.578 114.272 417.937 106.182 412.018C95.5062 404.194 83.8876 399.327 71.8682 394.343C66.4467 392.094 60.0789 389.887 55.8783 385.416C51.4921 380.78 51.6665 374.024 51.6999 367.811Z" stroke="#0881B9"/>
<path fill-rule="evenodd" clip-rule="evenodd" d="M64.2105 357.593C66.1272 343.136 72.1003 329.319 82.1892 319.099C89.9231 311.253 100.194 306.835 106.401 297.408C112.185 288.62 116.215 278.628 120.992 269.232C126.048 259.298 133.559 242.696 145.219 239.993C157.785 237.082 167.466 253.83 172.826 263.112C179.598 274.842 184.742 287.463 190.797 299.597C195.359 308.641 201.177 316.913 208.059 324.136C215.276 331.751 225.065 339.044 228.716 349.515C231.944 358.789 225.904 370.009 224.838 379.413C223.698 389.46 225.696 400.014 219.374 408.641C206.335 426.432 173.613 423.133 154.907 423.513C136.449 423.906 121.609 413.019 106.672 402.662C96.8062 395.824 86.5316 390.033 76.4167 383.662C66.105 377.161 62.5241 370.315 64.2105 357.593Z" stroke="#0881B9"/>
<path fill-rule="evenodd" clip-rule="evenodd" d="M75.8342 349.318C81.5024 328.375 99.2059 317.243 111.862 301.415C122.217 288.458 129.982 261.625 147.421 258.075C167.221 254.047 179.074 289.601 185.958 303.32C193.596 318.535 207.199 330.911 212.856 347.017C215.83 355.471 213.276 363.359 211.693 371.809C209.957 381.087 208.653 390.573 202.661 398.042C190.867 412.738 167.834 412.636 151.246 413.041C134.074 413.461 118.883 403.389 105.201 393.338C90.6905 382.693 70.0285 370.796 75.8342 349.318Z" stroke="#0881B9"/>
<path fill-rule="evenodd" clip-rule="evenodd" d="M85.328 343.639C91.715 328.717 105.137 316.586 116.028 305.134C125.118 295.587 134.897 276.368 148.756 274.998C165.046 273.382 174.919 293.905 181.328 306.489C187.636 318.854 196.727 331.91 200.22 345.481C203.862 359.618 194.162 378.658 184.911 388.662C174.593 399.817 157.712 403.939 143.227 403.494C128.06 403.041 114.144 393.822 102.658 384.259C90.3784 374.037 77.9002 360.961 85.328 343.639Z" stroke="#0881B9"/>
<path fill-rule="evenodd" clip-rule="evenodd" d="M94.1369 340.83C100.238 328.419 110.813 317.92 120.564 308.555C128.089 301.325 139.193 289.032 150.05 288.731C161.993 288.398 172.115 298.717 176.863 309.294C181.544 319.727 186.475 332.806 187.176 344.251C188.698 369.175 157.721 397.093 134.46 394.821C112.406 392.667 81.9725 365.558 94.1369 340.83Z" stroke="#0881B9"/>
<path fill-rule="evenodd" clip-rule="evenodd" d="M102.284 339.461C110.701 323.291 131.145 300.238 150.072 299.69C171.797 299.065 177.25 324.718 174.419 343.309C171.542 362.284 146.494 389.748 126.522 386.037C107.03 382.415 92.3092 358.639 102.284 339.461Z" stroke="#0881B9"/>
<path fill-rule="evenodd" clip-rule="evenodd" d="M110.886 336.847C118.012 323.307 133.218 306.396 149.078 305.884C167.976 305.279 167.619 326.937 163.334 340.418C158.878 354.414 139.253 378.32 122.706 374.545C106.615 370.861 104.057 349.823 110.886 336.847Z" stroke="#0881B9"/>
<path fill-rule="evenodd" clip-rule="evenodd" d="M118.378 335.288C123.081 325.628 134.854 313.417 146.045 313.027C159.724 312.557 157.065 329.736 153.531 338.027C149.33 347.893 135.248 365.037 123.431 362.258C111.797 359.523 114.497 343.248 118.378 335.288Z" stroke="#0881B9"/>
<path fill-rule="evenodd" clip-rule="evenodd" d="M761.862 887.275C731.584 906.658 697.357 922.658 665.08 938.92C617.912 962.682 570.049 985.805 520.488 1003.51C493.916 1012.99 459.484 1026.67 430.972 1019.24C420.548 1016.52 411.041 1008.3 401.694 1002.96C388.806 995.602 375.728 988.604 362.673 981.59C336.484 967.532 310.213 953.614 284.473 938.653C272.079 931.447 260.053 922.371 247.15 916.224C239.609 912.629 230.586 914.311 222.529 914.538C203.865 915.068 185.213 916.071 166.561 916.926C143.746 917.969 120.879 919.078 98.0383 918.667C87.7365 918.478 62.5062 920.407 56.835 911.045C53.7839 906.003 60.975 896.912 64.3086 892.705C70.4295 884.974 77.4646 878.007 84.4067 871.111C100.461 855.162 117.512 839.974 131.783 822.16C139.115 813.001 148.722 801.812 143.935 789.31C139.104 776.682 130.735 765.748 125.629 753.163C119.749 738.681 117.311 723.61 114.535 708.254C112.48 696.904 107.693 686.848 103.193 676.384C98.2204 664.819 93.0695 653.155 89.617 640.959C87.3351 632.902 83.6523 618.408 91.635 613.307C102.977 606.055 124.246 611.927 137.175 614.064C155.043 617.012 172.782 620.768 190.602 624.003C203.538 626.355 216.519 628.934 229.672 629.209C250.874 629.652 272.146 628.119 293.292 626.692C332.448 624.05 371.322 620.466 410.61 620.466C445.03 620.466 524.572 662.482 543.191 669.88C580.355 684.649 618.507 698.649 653.675 718.298C663.189 723.618 677.831 730.707 682.837 741.656C685.925 748.404 684.506 752.305 691.79 756.652C701.727 762.584 714.459 764.913 725.46 767.567C743.176 771.84 761.029 775.459 778.827 779.328C814.823 787.134 850.575 795.963 886.423 804.459C897.26 807.027 910.371 807.595 920.702 812.119C927.362 815.024 926.671 818.682 921.516 823.097C912.474 830.844 899.802 835.144 889.121 839.563C873.471 846.036 857.565 851.81 841.652 857.503C825.738 863.196 809.743 868.712 793.822 874.416C783.305 878.172 771.312 881.226 761.862 887.275Z" stroke="#0881B9"/>
<path fill-rule="evenodd" clip-rule="evenodd" d="M736.946 883.012C704.919 902.434 669.368 917.907 635.096 933.003C591.234 952.335 546.379 970.454 500.163 982.538C473.028 989.629 441.012 997.457 413.286 989.326C403.395 986.425 396.005 979.904 387.526 974.148C377.861 967.58 367.825 961.561 357.789 955.637C337.129 943.442 316.251 931.664 295.155 920.302C283.981 914.259 271.681 906.168 259.057 904.071C249.021 902.403 237.621 904.817 227.54 905.52C209.385 906.784 191.234 908.088 173.072 909.195C152.115 910.471 131.098 911.649 110.096 911.444C98.3908 911.331 78.2958 913.211 70.0177 905.229C62.7953 898.265 89.0905 873.075 93.7146 868.289C108.156 853.346 123.344 839.118 136.785 823.139C144.729 813.716 154.401 802.256 157.75 789.767C160.601 779.123 155.1 766.995 151.851 757.157C147.788 744.833 144.51 732.057 139.789 719.992C135.585 709.243 128.894 699.667 123.017 689.895C116.553 679.145 110.007 668.219 105.208 656.492C102.268 649.276 97.402 637.191 103.245 630.312C109.996 622.382 130.804 627.564 139.358 628.695C156.709 631.019 173.927 634.474 191.16 637.568C219.782 642.703 247.07 647.195 276.216 646.119C314.172 644.713 352.09 641.408 390.039 639.578C404.053 638.895 418.289 637.521 432.314 638.263C440.354 638.691 446.476 641.282 451.153 647.128C457.539 655.106 472.248 659.523 482.477 664.1C498.427 671.234 514.579 677.869 530.685 684.591C566.043 699.353 602.08 713.581 635.613 732.674C646.222 738.712 658.369 745.445 666.216 755.421C670.595 760.985 669.491 766.344 672.164 772.256C675.702 780.034 687.337 783.544 694.292 786.088C707.715 791.004 721.687 794.298 735.552 797.383C766.925 804.364 798.372 808.954 830.254 812.334C837.726 813.119 867.147 815.84 851.695 828.953C834.622 843.444 809.97 850.547 789.871 858.713C771.765 866.055 753.644 872.886 736.946 883.012Z" stroke="#0881B9"/>
<path fill-rule="evenodd" clip-rule="evenodd" d="M692.685 879.42C662.581 896.507 629.232 909.254 596.81 921.449C557.466 936.247 517.136 949.438 475.872 956.827C449.95 961.464 421.372 965.027 395.625 957.321C378.043 952.06 364.442 937.839 348.999 928.054C333.556 918.27 317.488 909.086 300.94 901.43C290.67 896.679 279.622 891.893 268.194 892.52C240.408 894.041 212.656 897.667 184.84 899.427C166.439 900.603 148.001 901.571 129.544 901.281C118.414 901.109 103.124 901.814 93.27 895.637C82.3782 888.804 140.372 830.468 145.854 823.902C159.596 807.438 176.237 785.588 173.58 762.174C171.038 739.792 160.024 723.081 147.565 705.543C140.495 695.567 117.822 668.915 126.225 655.94C131.025 648.524 146.847 651.091 154.364 651.597C169.178 652.593 183.91 654.733 198.646 656.591C220.132 659.284 242.209 663.443 263.788 664.662C278.814 665.509 293.93 664.376 308.982 664.352C330.565 664.321 352.147 664.494 373.73 664.697C391.852 664.87 410.127 664.697 428.185 666.532C439.412 667.661 447.934 670.197 455.986 677.363C462.993 683.595 473.565 687.245 482.496 691.208C497.246 697.75 512.191 703.814 527.086 709.977C558.273 722.881 589.818 735.515 619.669 751.642C633.296 758.999 656.207 769.301 659.403 787.141C660.557 793.573 661.405 796.352 667.359 800.01C675.81 805.2 685.931 807.54 695.413 809.574C717.517 814.317 740.26 813.608 762.327 818.296C771.313 820.229 783.046 824.4 772.787 833.949C760.816 845.116 743.39 851.255 729.048 858.154C721.889 861.596 714.514 864.818 707.715 869.02C702.494 872.258 698.025 876.409 692.685 879.42Z" stroke="#0881B9"/>
<path fill-rule="evenodd" clip-rule="evenodd" d="M635.667 874.085C607.855 887.963 577.649 898.054 547.987 907.15C515.04 917.241 481.297 925.598 447.109 929.154C423.503 931.618 398.35 932.345 375.438 924.804C360.948 920.034 351.125 910.003 338.657 901.59C319.839 888.875 299.479 878.8 276.872 881.252C251.526 883.995 226.097 886.052 200.586 887.425C185.197 888.254 169.749 888.875 154.342 888.297C144.6 887.936 132.05 887.327 123.575 882.671C112.236 876.435 154.828 828.984 160.137 822.069C173.304 804.918 182.957 786.921 188.596 765.672C193.196 748.332 183.8 734.701 174.107 721.73C168.081 713.675 148.609 693.416 154.706 682.956C158.049 677.188 169.069 677.486 174.987 677.192C186.267 676.634 197.595 677.215 208.874 677.471C225.53 677.864 243.259 675.164 259.774 677.337C296.373 682.147 332.879 686.312 369.705 689.608C390.006 691.424 410.428 693.074 430.547 696.575C437.769 697.832 445.229 699.164 452.073 702.009C456.476 703.836 458.876 706.948 462.591 709.502C480.305 721.66 503.429 727.915 523.38 735.707C549.904 746.064 576.568 756.261 602.386 768.497C615.965 774.933 634.932 782.328 644.276 795.464C647.099 799.432 645.895 802.607 647.671 806.422C649.715 810.823 655.923 812.136 659.932 813.362C669.031 816.147 707.116 820.36 689.565 836.702C681.191 844.486 670.52 849.48 661.08 855.598C657.662 857.814 654.329 860.042 651.48 863.032C646.713 868.046 642.017 870.906 635.667 874.085Z" stroke="#0881B9"/>
<path fill-rule="evenodd" clip-rule="evenodd" d="M574.915 868.076C520.009 890.529 455.662 905.827 395.801 902.863C375.894 901.874 354.476 898.573 337.221 887.275C327.046 880.602 318.915 873.069 306.693 870.659C297.869 868.92 288.368 870.895 279.493 871.609C266.638 872.645 253.775 873.572 240.901 874.322C224.941 875.236 208.929 875.943 192.939 875.566C181.513 875.295 165.735 875.601 155.81 869.124C143.96 861.399 174.123 825.16 178.367 818.703C188.654 803.052 195.865 787.888 198.471 769.027C199.238 763.531 201.822 757.898 201.487 752.36C201.137 746.703 197.834 741.667 194.785 737.219C190.798 731.39 176.964 717.565 180.925 710.456C183.114 706.531 191.33 706.036 195.589 705.204C203.579 703.634 211.684 702.79 219.721 701.542C233.359 699.414 246.899 692.486 260.584 692.682C297.385 693.2 334.719 705.243 370.783 711.857C392.223 715.802 413.809 719.382 434.988 724.725C441.69 726.417 448.592 728.167 454.962 731.037C459.407 733.039 462.263 736.607 466.38 738.848C482.169 747.457 500.326 752.681 517.28 758.475C539.29 766.012 561.374 773.321 583.232 781.345C596.932 786.373 614.549 790.797 626.354 800.124C634.977 806.934 629.083 808.972 624.534 815.315C622.211 818.55 622.747 821.737 621.738 825.399C620.297 830.628 616.224 834.392 612.405 837.776C607.137 842.451 600.119 846.302 595.811 852.033C594.293 854.051 594.363 856.555 593.135 858.314C589.561 863.436 580.078 865.964 574.915 868.076Z" stroke="#0881B9"/>
<path fill-rule="evenodd" clip-rule="evenodd" d="M516.538 860.077C471.976 874.193 422.393 882.231 375.289 878.501C358.9 877.201 342.411 874.182 327.145 867.549C320.199 864.542 314.985 861.188 307.374 861.007C289.714 860.591 271.999 862.048 254.342 862.397C241.707 862.649 229.008 862.739 216.403 861.667C207.974 860.952 196.576 860.096 189.671 854.642C179.637 846.698 197.751 819.694 201.437 812.234C207.547 799.861 213.608 786.105 211.185 771.788C210.442 767.41 209.126 763.542 208.955 759.078C208.792 755.241 209.249 751.699 207.959 748.032C206.365 743.485 199.274 736.428 201.712 732.242C203.373 729.384 208.301 729.25 211.579 728.335C216.895 726.852 222.086 724.905 227.098 722.516C232.375 719.987 236.868 716.08 242.335 713.991C251.21 710.606 261.143 710.288 270.471 710.303C307.69 710.367 345.381 718.114 381.655 726.215C400.545 730.432 419.539 734.928 437.898 741.325C443.472 743.269 449.79 745.22 454.692 748.809C457.75 751.044 459.824 753.843 463.299 755.524C492.981 769.872 527.297 775.201 558.808 785.563C567.009 788.261 612.464 801.891 588.698 814.711C574.26 822.502 559.005 826.044 545.83 836.701C541.817 839.941 539.141 842.623 537.573 847.566C536.54 850.857 539.026 849.188 535.555 852.628C531.344 856.763 521.73 858.432 516.538 860.077Z" stroke="#0881B9"/>
<path fill-rule="evenodd" clip-rule="evenodd" d="M470.204 851.73C418.032 863.252 362.782 863.8 309.786 853.585C296.426 851.013 282.522 851.628 268.998 850.974C255.859 850.347 232.497 851.651 222.953 840.99C216.032 833.262 223.542 816.837 226.139 808.193C229.448 797.179 232.34 785.802 226.907 775.105C223.724 768.841 219.364 762.878 215.951 756.673C214.318 753.709 210.957 749.167 212.358 746.36C214.676 741.728 225.52 739.778 230.782 737.594C247.6 730.613 265.41 728.832 283.39 728.881C316.602 728.973 349.985 733.765 382.562 740.264C397.551 743.255 412.748 746.446 427.203 751.645C435.383 754.586 441.416 760.259 449.227 763.622C474.378 774.459 501.399 780.25 526.982 790.159C534.387 793.029 562.046 802.582 548.112 813.846C534.622 824.75 514.945 823.454 500.919 833.712C499.331 834.886 497.367 836.292 496.447 838.191C495.903 839.326 496.86 841.487 496.447 842.133C492.139 849.153 476.826 850.269 470.204 851.73Z" stroke="#0881B9"/>
<path fill-rule="evenodd" clip-rule="evenodd" d="M436.403 844.114C409.637 847.988 382.282 848.948 355.066 849.192C340.189 849.326 323.844 850.326 309.288 846.35C300.346 843.902 291.71 841.76 282.492 840.217C272.574 838.556 256.606 837.347 250.566 828.345C246.055 821.617 249.147 807.788 249.311 799.608C249.486 790.637 247.742 783.984 241.74 777.564C237.966 773.521 220.653 758.846 222.653 754.614C224.557 750.583 236.621 749.965 241.837 748.918C258.323 745.596 275.03 744.438 291.799 744.619C317.771 744.895 343.84 747.69 369.406 752.492C379.976 754.488 390.9 756.555 400.997 760.543C407.796 763.231 413.467 767.998 420.222 770.777C439.566 778.749 460.02 784.162 479.431 792.279C485.661 794.888 505.958 801.836 501.093 812.544C497.035 821.483 483.235 824.204 476.454 830.195C464.919 840.414 451.112 841.989 436.403 844.114Z" stroke="#0881B9"/>
<path fill-rule="evenodd" clip-rule="evenodd" d="M419.541 838.977C398.309 841.541 376.583 842.662 355.039 842.717C341.135 842.753 326.467 842.953 312.823 839.655C305.969 838 300.014 834.13 293.528 831.37C286.849 828.531 277.631 825.363 274.745 818.854C272.032 812.737 273.045 803.812 270.663 796.437C268.544 789.893 264.11 785.85 259.334 781.427C256.292 778.6 240.666 766.362 242.473 763.661C244.41 760.767 253.794 761.002 258.677 760.602C272.132 759.481 285.633 759.124 299.123 759.532C317.536 760.128 336.089 761.79 354.182 765.554C367.017 768.221 376.698 774.573 388.665 779.231C404.168 785.281 420.227 790.065 435.582 796.684C443.233 799.982 454.558 804.224 458.477 812.737C459.983 815.999 461.445 824.296 459.768 827.558C457.753 831.479 450.254 833.142 446.714 834.15C437.845 836.663 428.565 837.887 419.541 838.977Z" stroke="#0881B9"/>
</g>
</svg>
